<?xml version="1.0" encoding="utf-8"?>
<svg viewBox="0 0 1200 630" width="1200" height="630" xmlns="http://www.w3.org/2000/svg">
  <defs>
    <radialGradient id="a" gradientUnits="userSpaceOnUse" cx="152.29" cy="126.9" r="330" gradientTransform="matrix(.63847 -1.09184 1.0973 .64166 52.73 218.43)">
      <stop offset="0" stop-color="#00aaed"/>
      <stop offset="1" stop-color="#0091ca"/>
    </radialGradient>
    <linearGradient id="b" gradientUnits="userSpaceOnUse" x1="330" y1="0" x2="330" y2="660" gradientTransform="matrix(.98074 -.1953 .19575 .98303 -58.66 70.7)">
      <stop offset="0" stop-color="#98e2ff"/>
      <stop offset="1" stop-color="#4ec1ef"/>
    </linearGradient>
  </defs>
  <rect width="1200" height="630" style="fill: rgb(12, 74, 110);"/>
  <path d="M 1198.983 17.035 C 1196.47 28.315 1191.037 38.737 1183.23 47.256 C 1177.094 54.222 1169.194 59.451 1160.749 63.2 C 1150.626 67.508 1139.418 69.384 1128.457 68.212 C 1124.024 67.662 1119.594 66.91 1115.348 65.502 C 1104.084 61.869 1093.609 55.399 1085.859 46.391 C 1079.484 39.162 1074.756 30.635 1072.002 21.4 C 1070.007 14.446 1069.152 7.219 1069.467 0 L 1200 0 L 1200 10.768 C 1199.754 12.871 1199.414 14.963 1198.983 17.035 Z M 992.852 23.017 C 992.848 24.27 992.812 25.525 992.774 26.782 C 991.849 25.909 990.91 25.047 990.013 24.15 C 982.676 16.732 975.233 9.419 967.912 1.989 C 968.565 1.325 969.219 0.662 969.873 0 L 992.846 0 C 992.844 7.672 992.843 15.345 992.852 23.017 Z M 935.944 4.707 C 937.978 6.405 939.863 8.267 941.703 10.175 C 958.367 26.806 974.974 43.499 991.671 60.094 C 992.605 60.944 992.912 62.198 992.877 63.422 C 992.792 89.499 992.901 115.575 992.815 141.646 C 991.724 140.66 990.631 139.665 989.612 138.601 C 966.928 114.274 950.652 84.686 942.249 52.503 C 938.839 39.147 936.554 25.464 936.009 11.676 C 935.899 9.354 936.081 7.028 935.944 4.707 Z M 996.285 145.089 C 1022.357 145.003 1048.43 145.112 1074.501 145.027 C 1075.415 145.072 1076.422 145.085 1077.167 145.699 C 1078.598 146.816 1079.748 148.24 1081.045 149.505 C 1097.568 166.016 1114.07 182.546 1130.6 199.048 C 1131.514 199.987 1132.356 200.99 1133.221 201.977 C 1131.171 201.843 1129.112 201.977 1127.061 201.915 C 1121.692 201.718 1116.334 201.261 1111.008 200.549 C 1101.807 199.555 1092.75 197.523 1083.788 195.259 C 1055.987 187.678 1030.119 174.266 1007.902 155.916 C 1003.926 152.422 999.76 149.101 996.285 145.089 Z M 1111.137 145.133 C 1113.476 145.044 1115.809 145.036 1118.148 145.06 C 1131.09 145.052 1144.033 145.068 1156.975 145.052 C 1158.229 145.056 1159.487 145.092 1160.749 145.133 C 1159.552 146.419 1158.359 147.706 1157.093 148.923 C 1150.023 155.933 1143.041 163.031 1135.944 170.012 C 1128.501 162.699 1121.201 155.248 1113.778 147.92 C 1112.873 147.01 1112.012 146.067 1111.137 145.133 Z M 1194.049 146.254 C 1195.573 144.598 1197.968 145.076 1200 145.043 L 1200 191.635 C 1199.332 191.855 1198.661 192.069 1197.989 192.277 C 1187.505 195.824 1176.645 198.131 1165.752 199.999 C 1158.671 200.901 1151.564 201.702 1144.425 201.924 C 1142.504 201.965 1140.578 201.847 1138.661 201.973 C 1140.643 199.555 1142.917 197.406 1145.133 195.206 C 1161.421 178.869 1177.793 162.619 1194.049 146.254 Z" style="fill: rgb(7, 89, 133);"/>
  <path d="M 1129.068 120.797 C 1091.751 120.788 1054.436 120.784 1017.12 120.797 C 1017.113 80.532 1017.114 40.266 1017.115 0 L 1017.316 0 C 1017.269 3.097 1017.327 6.196 1017.471 9.286 C 1018.369 24.025 1022.03 38.466 1028.266 51.851 C 1030.05 55.528 1031.871 59.196 1033.977 62.703 C 1036.845 67.658 1040.238 72.285 1043.766 76.787 C 1048.308 82.441 1053.477 87.561 1058.929 92.33 C 1063.063 95.97 1067.552 99.186 1072.224 102.094 C 1077.926 105.835 1084.111 108.755 1090.3 111.587 C 1107.977 118.848 1127.129 121.799 1146.172 120.194 C 1153.922 119.445 1161.631 118.114 1169.105 115.911 C 1174.736 114.285 1180.289 112.351 1185.559 109.778 C 1189.397 107.886 1193.252 106.009 1196.929 103.817 C 1197.96 103.191 1198.984 102.553 1200 101.903 L 1200 120.785 C 1176.356 120.787 1152.712 120.801 1129.068 120.797 Z" style="fill: rgb(7, 89, 133);"/>
  <path d="M 381.156 478.671 C 391.521 477.187 401.919 475.696 412.401 475.534 C 414.869 475.523 417.341 475.674 419.808 475.523 C 417.629 478.122 415.301 480.593 412.837 482.925 L 353.672 542.09 C 350.406 545.333 347.141 548.581 343.943 551.891 C 342.76 553.203 341.146 554.107 339.332 553.962 C 303.169 553.867 267 553.995 230.837 553.895 C 235.408 548.737 240.739 544.345 245.935 539.857 C 266.409 522.872 289.221 508.65 313.674 498.151 C 321.276 494.738 329.057 491.738 336.983 489.165 C 346.566 485.849 356.451 483.538 366.308 481.211 C 371.215 480.139 376.21 479.542 381.156 478.671 Z M 427.31 475.529 C 430.899 475.707 434.494 475.345 438.077 475.663 C 444.278 476.16 450.502 476.416 456.658 477.348 C 462.988 478.253 469.334 479.062 475.63 480.195 C 495.886 484.192 515.807 490.147 534.633 498.67 C 558.171 508.879 580.101 522.632 599.972 538.83 C 605.576 543.658 611.336 548.358 616.276 553.895 C 581.435 554.001 546.595 553.856 511.754 553.962 C 509.07 553.839 505.804 554.632 503.745 552.421 C 480.927 529.481 457.975 506.669 435.124 483.756 C 432.37 481.16 429.761 478.413 427.31 475.529 Z M 393.53 549.58 C 403.577 539.634 413.479 529.548 423.559 519.64 C 433.734 529.637 443.726 539.824 453.867 549.854 C 455.185 551.171 456.457 552.533 457.752 553.873 C 441.331 554.001 424.91 553.889 408.489 553.928 C 402.115 553.9 395.74 553.995 389.366 553.873 C 390.745 552.438 392.112 550.981 393.53 549.58 Z M 214.779 570.64 C 218.345 566.52 221.895 562.351 226.048 558.801 C 226.124 582.534 226.078 606.267 226.078 630 L 175.531 630 C 178.546 623.874 181.76 617.847 185.168 611.927 C 193.761 597.292 203.673 583.473 214.779 570.64 Z M 621.137 558.812 C 625.017 562.239 628.438 566.135 631.821 570.048 C 640.476 579.977 648.406 590.517 655.548 601.584 C 661.497 610.701 666.787 620.227 671.577 630 L 621.099 630 C 621.096 606.271 621.053 582.542 621.137 558.812 Z M 259.543 587.429 C 310.124 587.407 360.699 587.418 411.28 587.424 C 423.743 587.697 436.207 587.329 448.676 587.418 L 587.62 587.418 C 587.613 601.612 587.607 615.806 587.603 630 L 533.418 630 C 528.202 625.265 522.687 620.861 516.912 616.828 C 496.424 602.676 472.985 593.371 448.369 589.617 C 441.621 588.73 434.84 587.809 428.019 587.87 C 421.41 587.848 414.774 587.708 408.193 588.456 C 396.907 589.5 385.772 591.895 374.926 595.171 C 365.153 598.213 355.525 601.908 346.611 606.982 C 334.97 613.158 324.103 620.694 314.237 629.431 C 314.035 629.62 313.833 629.81 313.631 630 L 259.578 630 C 259.578 621.016 259.577 612.031 259.577 603.047 C 259.565 597.839 259.61 592.637 259.543 587.429 Z" style="fill: rgb(7, 89, 133);"/>
  <g transform="matrix(0.221212, 0, 0, 0.221212, 59.706188, 3.002112)">
    <g transform="matrix(1, 0, 0, 1, 414.054443, 1080.401978)">
      <circle cx="330" cy="330" r="330" fill="url(#a)" stroke="url(#b)" stroke-width="20"/>
      <path stroke-miterlimit="2" d="M24.67 330L330 24.67 635.33 330 330 635.33z" stroke-width="20.67" stroke="#e0f2fe" fill="#0284c7"/>
      <path stroke-miterlimit="2" d="M545.94 114.06v431.8h-431.8v-431.8z" stroke-width="20" stroke="#e0f2fe" fill="#38bdf8"/>
      <circle cx="330" cy="330" r="195.67" stroke-miterlimit="1.11" stroke-width="20" fill="#e0f2fe" stroke="#bae6fd"/>
      <circle cx="328.34" cy="331.66" r="108.12" stroke-miterlimit="1.11" stroke-width="20" fill="#0284c7" stroke="#bae6fd"/>
    </g>
    <g transform="matrix(1, 0, 0, 1, 0, -104.908005)">
      <path d="M 1398.25 1449.47 C 1400.803 1449.47 1403 1450.533 1404.84 1452.66 C 1406.68 1454.78 1407.6 1457.257 1407.6 1460.09 C 1407.6 1466.323 1402.787 1472.413 1393.16 1478.36 C 1372.76 1490.54 1351.23 1496.63 1328.57 1496.63 C 1297.13 1496.63 1272.343 1487.143 1254.21 1468.17 C 1236.083 1449.19 1227.02 1423.127 1227.02 1389.98 C 1227.02 1368.74 1231.057 1349.977 1239.13 1333.69 C 1247.203 1317.397 1258.533 1304.79 1273.12 1295.87 C 1287.707 1286.943 1304.49 1282.48 1323.47 1282.48 C 1350.097 1282.48 1371.13 1291.05 1386.57 1308.19 C 1402.01 1325.33 1409.73 1348.913 1409.73 1378.94 C 1409.73 1384.04 1408.597 1387.793 1406.33 1390.2 C 1404.063 1392.607 1400.38 1393.81 1395.28 1393.81 L 1253.79 1393.81 C 1254.637 1419.87 1261.433 1439.697 1274.18 1453.29 C 1286.927 1466.89 1304.917 1473.69 1328.15 1473.69 C 1340.33 1473.69 1350.527 1472.06 1358.74 1468.8 C 1366.953 1465.547 1375.733 1461.227 1385.08 1455.84 C 1391.313 1451.593 1395.703 1449.47 1398.25 1449.47 Z M 1323.47 1303.73 C 1303.643 1303.73 1287.78 1309.963 1275.88 1322.43 C 1263.987 1334.89 1256.907 1352.31 1254.64 1374.69 L 1385.93 1374.69 C 1385.363 1352.03 1379.7 1334.537 1368.94 1322.21 C 1358.173 1309.89 1343.017 1303.73 1323.47 1303.73 ZM 1545.26 1282.48 C 1570.187 1282.48 1588.814 1288.997 1601.14 1302.03 C 1613.46 1315.063 1619.62 1334.75 1619.62 1361.09 L 1619.62 1482.19 C 1619.62 1486.157 1618.487 1489.343 1616.22 1491.75 C 1613.954 1494.157 1610.837 1495.36 1606.87 1495.36 C 1602.904 1495.36 1599.79 1494.157 1597.53 1491.75 C 1595.264 1489.343 1594.13 1486.157 1594.13 1482.19 L 1594.13 1456.69 C 1588.177 1469.437 1579.537 1479.28 1568.21 1486.22 C 1556.877 1493.16 1543.847 1496.63 1529.12 1496.63 C 1515.807 1496.63 1503.627 1493.94 1492.58 1488.56 C 1481.527 1483.18 1472.814 1475.673 1466.44 1466.04 C 1460.067 1456.407 1456.88 1445.783 1456.88 1434.17 C 1456.88 1418.877 1460.847 1406.98 1468.78 1398.48 C 1476.714 1389.987 1489.887 1383.897 1508.3 1380.21 C 1526.707 1376.53 1552.34 1374.69 1585.2 1374.69 L 1594.13 1374.69 L 1594.13 1358.97 C 1594.13 1340.27 1590.304 1326.6 1582.65 1317.96 C 1575.004 1309.32 1562.967 1305 1546.54 1305 C 1525.574 1305 1505.604 1310.527 1486.63 1321.58 C 1485.777 1322.147 1483.58 1323.633 1480.04 1326.04 C 1476.5 1328.447 1473.457 1329.65 1470.91 1329.65 C 1468.077 1329.65 1465.737 1328.587 1463.89 1326.46 C 1462.05 1324.34 1461.13 1321.72 1461.13 1318.6 C 1461.13 1312.367 1466.087 1306.277 1476 1300.33 C 1485.92 1294.663 1496.97 1290.273 1509.15 1287.16 C 1521.33 1284.04 1533.367 1282.48 1545.26 1282.48 Z M 1531.24 1474.11 C 1549.654 1474.11 1564.737 1467.88 1576.49 1455.42 C 1588.25 1442.953 1594.13 1427.09 1594.13 1407.83 L 1594.13 1393.81 L 1586.05 1393.81 C 1558.857 1393.81 1538.037 1394.943 1523.59 1397.21 C 1509.144 1399.477 1498.947 1403.37 1493 1408.89 C 1487.054 1414.417 1484.08 1422.42 1484.08 1432.9 C 1484.08 1444.8 1488.61 1454.643 1497.67 1462.43 C 1506.737 1470.217 1517.927 1474.11 1531.24 1474.11 ZM 1753.881 1496.63 C 1741.987 1496.63 1730.304 1495.003 1718.831 1491.75 C 1707.357 1488.49 1697.231 1484.027 1688.451 1478.36 C 1683.064 1474.68 1679.311 1471.493 1677.191 1468.8 C 1675.064 1466.113 1674.001 1463.07 1674.001 1459.67 C 1674.001 1456.837 1674.921 1454.427 1676.761 1452.44 C 1678.601 1450.46 1680.797 1449.47 1683.351 1449.47 C 1685.897 1449.47 1690.287 1451.593 1696.521 1455.84 C 1704.734 1461.227 1713.161 1465.62 1721.801 1469.02 C 1730.441 1472.413 1741.277 1474.11 1754.311 1474.11 C 1771.024 1474.11 1784.054 1471.067 1793.401 1464.98 C 1802.747 1458.887 1807.421 1450.177 1807.421 1438.85 C 1807.421 1432.05 1805.721 1426.453 1802.321 1422.06 C 1798.921 1417.673 1793.254 1413.85 1785.321 1410.59 C 1777.394 1407.337 1766.064 1404.15 1751.331 1401.03 C 1726.124 1395.363 1708.207 1388.07 1697.581 1379.15 C 1686.961 1370.23 1681.651 1358.263 1681.651 1343.25 C 1681.651 1325.117 1688.731 1310.457 1702.891 1299.27 C 1717.057 1288.077 1735.471 1282.48 1758.131 1282.48 C 1769.177 1282.48 1779.731 1283.897 1789.791 1286.73 C 1799.844 1289.563 1808.554 1293.673 1815.921 1299.06 C 1825.834 1305.853 1830.791 1312.51 1830.791 1319.03 C 1830.791 1321.863 1829.871 1324.34 1828.031 1326.46 C 1826.184 1328.587 1823.987 1329.65 1821.441 1329.65 C 1818.607 1329.65 1814.217 1327.383 1808.271 1322.85 C 1800.624 1317.47 1793.047 1313.15 1785.541 1309.89 C 1778.034 1306.63 1768.474 1305 1756.861 1305 C 1742.127 1305 1730.371 1308.33 1721.591 1314.99 C 1712.811 1321.643 1708.421 1330.637 1708.421 1341.97 C 1708.421 1348.483 1709.907 1353.867 1712.881 1358.12 C 1715.854 1362.367 1720.951 1366.12 1728.171 1369.38 C 1735.397 1372.633 1745.807 1375.82 1759.401 1378.94 C 1778.947 1383.473 1793.961 1388.287 1804.441 1393.38 C 1814.927 1398.48 1822.434 1404.57 1826.961 1411.65 C 1831.494 1418.737 1833.761 1427.803 1833.761 1438.85 C 1833.761 1456.13 1826.467 1470.08 1811.881 1480.7 C 1797.294 1491.32 1777.961 1496.63 1753.881 1496.63 ZM 2037.287 1290.98 C 2039.554 1285.88 2043.234 1283.33 2048.327 1283.33 C 2051.447 1283.33 2054.281 1284.463 2056.827 1286.73 C 2059.381 1288.997 2060.657 1291.69 2060.657 1294.81 C 2060.657 1296.79 2060.231 1298.63 2059.377 1300.33 L 1939.127 1564.19 C 1936.867 1569.01 1933.187 1571.42 1928.087 1571.42 C 1924.967 1571.42 1922.204 1570.427 1919.797 1568.44 C 1917.391 1566.46 1916.187 1563.91 1916.187 1560.79 C 1916.187 1559.09 1916.611 1557.393 1917.457 1555.7 L 1947.627 1489.84 L 1860.527 1300.33 C 1859.674 1298.63 1859.247 1296.93 1859.247 1295.23 C 1859.247 1291.83 1860.734 1288.927 1863.707 1286.52 C 1866.687 1284.113 1869.877 1282.91 1873.277 1282.91 C 1878.657 1282.91 1882.337 1285.46 1884.317 1290.56 L 1960.797 1462.22 L 2037.287 1290.98 Z" transform="matrix(1, 0, 0, 1, 0, 0)" style="fill: rgb(245, 245, 245); white-space: pre;"/>
      <path d="M 2186.844 1496.63 C 2166.731 1496.63 2149.098 1492.24 2133.944 1483.46 C 2118.784 1474.68 2107.028 1462.217 2098.674 1446.07 C 2090.321 1429.923 2086.144 1411.227 2086.144 1389.98 C 2086.144 1368.453 2090.464 1349.477 2099.104 1333.05 C 2107.738 1316.617 2119.844 1303.87 2135.424 1294.81 C 2151.004 1285.743 2168.851 1281.21 2188.964 1281.21 C 2199.731 1281.21 2210.568 1282.767 2221.474 1285.88 C 2232.381 1289 2242.081 1293.25 2250.574 1298.63 C 2259.641 1304.863 2264.174 1312.087 2264.174 1320.3 C 2264.174 1325.113 2262.898 1329.15 2260.344 1332.41 C 2257.798 1335.67 2254.541 1337.3 2250.574 1337.3 C 2248.028 1337.3 2245.478 1336.66 2242.924 1335.38 C 2240.378 1334.107 2237.121 1332.197 2233.154 1329.65 C 2226.074 1325.117 2219.488 1321.647 2213.394 1319.24 C 2207.308 1316.833 2200.014 1315.63 2191.514 1315.63 C 2172.254 1315.63 2157.311 1322.143 2146.684 1335.17 C 2136.064 1348.203 2130.754 1366.333 2130.754 1389.56 C 2130.754 1412.787 2135.994 1430.703 2146.474 1443.31 C 2156.954 1455.917 2171.828 1462.22 2191.094 1462.22 C 2199.588 1462.22 2207.094 1460.943 2213.614 1458.39 C 2220.128 1455.843 2226.784 1452.447 2233.584 1448.2 C 2236.698 1446.213 2239.811 1444.513 2242.924 1443.1 C 2246.044 1441.68 2248.878 1440.97 2251.424 1440.97 C 2255.391 1440.97 2258.648 1442.6 2261.194 1445.86 C 2263.748 1449.12 2265.024 1453.157 2265.024 1457.97 C 2265.024 1461.937 2263.961 1465.547 2261.834 1468.8 C 2259.714 1472.06 2256.104 1475.39 2251.004 1478.79 C 2242.504 1484.457 2232.588 1488.847 2221.254 1491.96 C 2209.928 1495.073 2198.458 1496.63 2186.844 1496.63 ZM 2393.335 1496.63 C 2372.941 1496.63 2355.025 1492.24 2339.585 1483.46 C 2324.145 1474.68 2312.248 1462.147 2303.895 1445.86 C 2295.541 1429.573 2291.365 1410.663 2291.365 1389.13 C 2291.365 1367.323 2295.541 1348.277 2303.895 1331.99 C 2312.248 1315.697 2324.145 1303.16 2339.585 1294.38 C 2355.025 1285.6 2372.941 1281.21 2393.335 1281.21 C 2413.728 1281.21 2431.645 1285.6 2447.085 1294.38 C 2462.525 1303.16 2474.421 1315.697 2482.775 1331.99 C 2491.135 1348.277 2495.315 1367.323 2495.315 1389.13 C 2495.315 1410.663 2491.135 1429.573 2482.775 1445.86 C 2474.421 1462.147 2462.525 1474.68 2447.085 1483.46 C 2431.645 1492.24 2413.728 1496.63 2393.335 1496.63 Z M 2393.335 1462.64 C 2412.315 1462.64 2426.831 1456.41 2436.885 1443.95 C 2446.945 1431.483 2451.975 1413.21 2451.975 1389.13 C 2451.975 1365.337 2446.875 1347.137 2436.675 1334.53 C 2426.481 1321.93 2412.035 1315.63 2393.335 1315.63 C 2374.641 1315.63 2360.195 1321.93 2349.995 1334.53 C 2339.801 1347.137 2334.705 1365.337 2334.705 1389.13 C 2334.705 1413.21 2339.731 1431.483 2349.785 1443.95 C 2359.838 1456.41 2374.355 1462.64 2393.335 1462.64 ZM 2651.67 1282.06 C 2665.264 1281.213 2672.06 1287.02 2672.06 1299.48 C 2672.06 1305.713 2670.504 1310.387 2667.39 1313.5 C 2664.27 1316.62 2658.887 1318.463 2651.24 1319.03 L 2638.5 1320.3 C 2620.654 1322 2607.41 1328.233 2598.77 1339 C 2590.13 1349.76 2585.81 1362.79 2585.81 1378.09 L 2585.81 1475.39 C 2585.81 1482.19 2583.827 1487.29 2579.86 1490.69 C 2575.894 1494.083 2570.794 1495.78 2564.56 1495.78 C 2558.334 1495.78 2553.164 1494.083 2549.05 1490.69 C 2544.944 1487.29 2542.89 1482.19 2542.89 1475.39 L 2542.89 1302.45 C 2542.89 1295.937 2544.944 1290.91 2549.05 1287.37 C 2553.164 1283.83 2558.334 1282.06 2564.56 1282.06 C 2570.227 1282.06 2574.974 1283.83 2578.8 1287.37 C 2582.62 1290.91 2584.53 1295.797 2584.53 1302.03 L 2584.53 1322.43 C 2590.197 1309.963 2598.414 1300.473 2609.18 1293.96 C 2619.94 1287.44 2632.12 1283.613 2645.72 1282.48 L 2651.67 1282.06 ZM 2856.46 1441.4 C 2860.427 1441.4 2863.687 1442.957 2866.24 1446.07 C 2868.787 1449.19 2870.06 1453.157 2870.06 1457.97 C 2870.06 1466.183 2864.963 1473.123 2854.77 1478.79 C 2844.85 1484.457 2834.013 1488.847 2822.26 1491.96 C 2810.507 1495.073 2799.247 1496.63 2788.48 1496.63 C 2755.62 1496.63 2729.7 1487.07 2710.72 1467.95 C 2691.747 1448.83 2682.26 1422.7 2682.26 1389.56 C 2682.26 1368.313 2686.437 1349.477 2694.79 1333.05 C 2703.143 1316.617 2714.9 1303.87 2730.06 1294.81 C 2745.213 1285.743 2762.42 1281.21 2781.68 1281.21 C 2809.44 1281.21 2831.393 1290.133 2847.54 1307.98 C 2863.687 1325.827 2871.76 1349.903 2871.76 1380.21 C 2871.76 1391.543 2866.66 1397.21 2856.46 1397.21 L 2725.17 1397.21 C 2728.003 1441.117 2749.107 1463.07 2788.48 1463.07 C 2798.96 1463.07 2808.023 1461.653 2815.67 1458.82 C 2823.323 1455.987 2831.397 1452.303 2839.89 1447.77 C 2840.743 1447.203 2843.08 1446 2846.9 1444.16 C 2850.727 1442.32 2853.913 1441.4 2856.46 1441.4 Z M 2782.53 1312.65 C 2766.103 1312.65 2752.933 1317.89 2743.02 1328.37 C 2733.1 1338.857 2727.15 1353.587 2725.17 1372.56 L 2834.79 1372.56 C 2833.943 1353.3 2829.06 1338.5 2820.14 1328.16 C 2811.213 1317.82 2798.677 1312.65 2782.53 1312.65 Z" transform="matrix(1, 0, 0, 1, 0, 0)" style="fill: rgb(245, 245, 245); white-space: pre;"/>
      <path d="M 1310.56 1728.45 C 1316.447 1729.99 1321.003 1732.883 1324.23 1737.13 C 1327.463 1741.377 1329.08 1746.683 1329.08 1753.05 C 1329.08 1762.017 1326.137 1768.89 1320.25 1773.67 C 1314.37 1778.443 1306.027 1780.83 1295.22 1780.83 L 1258.76 1780.83 C 1256.927 1780.83 1255.453 1780.3 1254.34 1779.24 C 1253.233 1778.18 1252.68 1776.78 1252.68 1775.04 L 1252.68 1684.6 C 1252.68 1682.867 1253.233 1681.47 1254.34 1680.41 C 1255.453 1679.35 1256.927 1678.82 1258.76 1678.82 L 1293.63 1678.82 C 1304.143 1678.82 1312.293 1681.133 1318.08 1685.76 C 1323.873 1690.393 1326.77 1696.953 1326.77 1705.44 C 1326.77 1710.94 1325.347 1715.667 1322.5 1719.62 C 1319.653 1723.573 1315.673 1726.517 1310.56 1728.45 Z M 1264.4 1688.66 L 1264.4 1724.11 L 1291.89 1724.11 C 1299.51 1724.11 1305.273 1722.567 1309.18 1719.48 C 1313.087 1716.393 1315.04 1711.907 1315.04 1706.02 C 1315.04 1694.447 1307.323 1688.66 1291.89 1688.66 L 1264.4 1688.66 Z M 1294.06 1770.99 C 1302.067 1770.99 1307.977 1769.52 1311.79 1766.58 C 1315.597 1763.633 1317.5 1759.027 1317.5 1752.76 C 1317.5 1740.22 1309.687 1733.95 1294.06 1733.95 L 1264.4 1733.95 L 1264.4 1770.99 L 1294.06 1770.99 ZM 1401.979 1708.91 C 1403.812 1708.91 1405.236 1709.443 1406.249 1710.51 C 1407.262 1711.57 1407.769 1712.967 1407.769 1714.7 L 1407.769 1775.91 C 1407.769 1777.55 1407.262 1778.9 1406.249 1779.96 C 1405.236 1781.02 1403.812 1781.55 1401.979 1781.55 C 1400.246 1781.55 1398.872 1781.043 1397.859 1780.03 C 1396.846 1779.017 1396.339 1777.69 1396.339 1776.05 L 1396.339 1768.82 C 1394.119 1773.067 1391.009 1776.297 1387.009 1778.51 C 1383.002 1780.73 1378.492 1781.84 1373.479 1781.84 C 1365.086 1781.84 1358.766 1779.5 1354.519 1774.82 C 1350.272 1770.147 1348.149 1763.227 1348.149 1754.06 L 1348.149 1714.7 C 1348.149 1712.967 1348.679 1711.57 1349.739 1710.51 C 1350.806 1709.443 1352.256 1708.91 1354.089 1708.91 C 1355.922 1708.91 1357.342 1709.443 1358.349 1710.51 C 1359.362 1711.57 1359.869 1712.967 1359.869 1714.7 L 1359.869 1753.77 C 1359.869 1760.043 1361.126 1764.65 1363.639 1767.59 C 1366.146 1770.53 1370.099 1772 1375.499 1772 C 1381.672 1772 1386.642 1770 1390.409 1766 C 1394.169 1761.993 1396.049 1756.71 1396.049 1750.15 L 1396.049 1714.7 C 1396.049 1712.967 1396.579 1711.57 1397.639 1710.51 C 1398.699 1709.443 1400.146 1708.91 1401.979 1708.91 ZM 1435.532 1781.55 C 1433.792 1781.55 1432.369 1781.043 1431.262 1780.03 C 1430.149 1779.017 1429.592 1777.597 1429.592 1775.77 L 1429.592 1714.7 C 1429.592 1712.867 1430.149 1711.443 1431.262 1710.43 C 1432.369 1709.417 1433.792 1708.91 1435.532 1708.91 C 1437.265 1708.91 1438.662 1709.417 1439.722 1710.43 C 1440.782 1711.443 1441.312 1712.867 1441.312 1714.7 L 1441.312 1775.77 C 1441.312 1777.697 1440.782 1779.143 1439.722 1780.11 C 1438.662 1781.07 1437.265 1781.55 1435.532 1781.55 Z M 1435.532 1693.72 C 1433.212 1693.72 1431.329 1693.043 1429.882 1691.69 C 1428.435 1690.343 1427.712 1688.56 1427.712 1686.34 C 1427.712 1684.22 1428.435 1682.483 1429.882 1681.13 C 1431.329 1679.783 1433.212 1679.11 1435.532 1679.11 C 1437.845 1679.11 1439.725 1679.783 1441.172 1681.13 C 1442.619 1682.483 1443.342 1684.22 1443.342 1686.34 C 1443.342 1688.56 1442.619 1690.343 1441.172 1691.69 C 1439.725 1693.043 1437.845 1693.72 1435.532 1693.72 ZM 1469.093 1781.55 C 1467.353 1781.55 1465.929 1781.043 1464.823 1780.03 C 1463.709 1779.017 1463.153 1777.597 1463.153 1775.77 L 1463.153 1683.88 C 1463.153 1682.047 1463.709 1680.623 1464.823 1679.61 C 1465.929 1678.597 1467.353 1678.09 1469.093 1678.09 C 1470.733 1678.09 1472.106 1678.597 1473.213 1679.61 C 1474.319 1680.623 1474.873 1682.047 1474.873 1683.88 L 1474.873 1775.77 C 1474.873 1777.597 1474.319 1779.017 1473.213 1780.03 C 1472.106 1781.043 1470.733 1781.55 1469.093 1781.55 ZM 1553.293 1678.09 C 1555.126 1678.09 1556.573 1678.62 1557.633 1679.68 C 1558.693 1680.747 1559.223 1682.1 1559.223 1683.74 L 1559.223 1775.77 C 1559.223 1777.503 1558.693 1778.9 1557.633 1779.96 C 1556.573 1781.02 1555.126 1781.55 1553.293 1781.55 C 1551.46 1781.55 1550.036 1781.02 1549.023 1779.96 C 1548.01 1778.9 1547.503 1777.503 1547.503 1775.77 L 1547.503 1767.95 C 1545.383 1772.39 1542.273 1775.817 1538.173 1778.23 C 1534.073 1780.637 1529.273 1781.84 1523.773 1781.84 C 1517.6 1781.84 1512.15 1780.297 1507.423 1777.21 C 1502.696 1774.123 1499.03 1769.807 1496.423 1764.26 C 1493.823 1758.713 1492.523 1752.273 1492.523 1744.94 C 1492.523 1737.707 1493.823 1731.34 1496.423 1725.84 C 1499.03 1720.347 1502.696 1716.103 1507.423 1713.11 C 1512.15 1710.117 1517.6 1708.62 1523.773 1708.62 C 1529.273 1708.62 1534.073 1709.827 1538.173 1712.24 C 1542.273 1714.653 1545.383 1718.08 1547.503 1722.52 L 1547.503 1683.74 C 1547.503 1682 1548.01 1680.623 1549.023 1679.61 C 1550.036 1678.597 1551.46 1678.09 1553.293 1678.09 Z M 1526.093 1772.15 C 1532.94 1772.15 1538.22 1769.81 1541.933 1765.13 C 1545.646 1760.45 1547.503 1753.817 1547.503 1745.23 C 1547.503 1736.65 1545.646 1730.043 1541.933 1725.41 C 1538.22 1720.777 1532.94 1718.46 1526.093 1718.46 C 1519.24 1718.46 1513.91 1720.777 1510.103 1725.41 C 1506.29 1730.043 1504.383 1736.553 1504.383 1744.94 C 1504.383 1753.527 1506.29 1760.21 1510.103 1764.99 C 1513.91 1769.763 1519.24 1772.15 1526.093 1772.15 ZM 1586.844 1781.55 C 1585.104 1781.55 1583.68 1781.043 1582.574 1780.03 C 1581.46 1779.017 1580.904 1777.597 1580.904 1775.77 L 1580.904 1714.7 C 1580.904 1712.867 1581.46 1711.443 1582.574 1710.43 C 1583.68 1709.417 1585.104 1708.91 1586.844 1708.91 C 1588.577 1708.91 1589.974 1709.417 1591.034 1710.43 C 1592.094 1711.443 1592.624 1712.867 1592.624 1714.7 L 1592.624 1775.77 C 1592.624 1777.697 1592.094 1779.143 1591.034 1780.11 C 1589.974 1781.07 1588.577 1781.55 1586.844 1781.55 Z M 1586.844 1693.72 C 1584.524 1693.72 1582.64 1693.043 1581.194 1691.69 C 1579.747 1690.343 1579.024 1688.56 1579.024 1686.34 C 1579.024 1684.22 1579.747 1682.483 1581.194 1681.13 C 1582.64 1679.783 1584.524 1679.11 1586.844 1679.11 C 1589.157 1679.11 1591.037 1679.783 1592.484 1681.13 C 1593.93 1682.483 1594.654 1684.22 1594.654 1686.34 C 1594.654 1688.56 1593.93 1690.343 1592.484 1691.69 C 1591.037 1693.043 1589.157 1693.72 1586.844 1693.72 ZM 1649.914 1708.62 C 1666.801 1708.62 1675.244 1717.93 1675.244 1736.55 L 1675.244 1775.77 C 1675.244 1777.597 1674.738 1779.017 1673.724 1780.03 C 1672.711 1781.043 1671.288 1781.55 1669.454 1781.55 C 1667.621 1781.55 1666.174 1781.043 1665.114 1780.03 C 1664.054 1779.017 1663.524 1777.597 1663.524 1775.77 L 1663.524 1737.28 C 1663.524 1730.72 1662.244 1725.943 1659.684 1722.95 C 1657.131 1719.957 1653.054 1718.46 1647.454 1718.46 C 1640.994 1718.46 1635.834 1720.44 1631.974 1724.4 C 1628.114 1728.353 1626.184 1733.707 1626.184 1740.46 L 1626.184 1775.77 C 1626.184 1777.597 1625.678 1779.017 1624.664 1780.03 C 1623.651 1781.043 1622.231 1781.55 1620.404 1781.55 C 1618.571 1781.55 1617.121 1781.043 1616.054 1780.03 C 1614.994 1779.017 1614.464 1777.597 1614.464 1775.77 L 1614.464 1714.7 C 1614.464 1712.967 1614.994 1711.57 1616.054 1710.51 C 1617.121 1709.443 1618.571 1708.91 1620.404 1708.91 C 1622.138 1708.91 1623.511 1709.443 1624.524 1710.51 C 1625.538 1711.57 1626.044 1712.92 1626.044 1714.56 L 1626.044 1721.94 C 1628.358 1717.6 1631.588 1714.297 1635.734 1712.03 C 1639.888 1709.757 1644.614 1708.62 1649.914 1708.62 ZM 1753.79 1708.91 C 1755.623 1708.91 1757.07 1709.443 1758.13 1710.51 C 1759.19 1711.57 1759.72 1712.967 1759.72 1714.7 L 1759.72 1776.05 C 1759.72 1786.57 1757.02 1794.507 1751.62 1799.86 C 1746.22 1805.213 1738.213 1807.89 1727.6 1807.89 C 1717.28 1807.89 1708.693 1805.863 1701.84 1801.81 C 1698.367 1799.883 1696.63 1797.667 1696.63 1795.16 C 1696.63 1793.807 1696.993 1792.697 1697.72 1791.83 C 1698.44 1790.957 1699.38 1790.52 1700.54 1790.52 C 1701.507 1790.52 1703.243 1791.197 1705.75 1792.55 C 1709.123 1794.29 1712.45 1795.69 1715.73 1796.75 C 1719.01 1797.81 1722.917 1798.34 1727.45 1798.34 C 1734.303 1798.34 1739.467 1796.53 1742.94 1792.91 C 1746.413 1789.297 1748.15 1784.017 1748.15 1777.07 L 1748.15 1764.62 C 1746.123 1769.153 1743.01 1772.627 1738.81 1775.04 C 1734.617 1777.453 1729.673 1778.66 1723.98 1778.66 C 1717.807 1778.66 1712.333 1777.213 1707.56 1774.32 C 1702.78 1771.427 1699.067 1767.327 1696.42 1762.02 C 1693.767 1756.713 1692.44 1750.587 1692.44 1743.64 C 1692.44 1736.693 1693.767 1730.57 1696.42 1725.27 C 1699.067 1719.963 1702.78 1715.863 1707.56 1712.97 C 1712.333 1710.07 1717.807 1708.62 1723.98 1708.62 C 1729.573 1708.62 1734.447 1709.827 1738.6 1712.24 C 1742.747 1714.653 1745.88 1718.08 1748 1722.52 L 1748 1714.7 C 1748 1712.967 1748.507 1711.57 1749.52 1710.51 C 1750.533 1709.443 1751.957 1708.91 1753.79 1708.91 Z M 1726.3 1768.96 C 1733.047 1768.96 1738.35 1766.72 1742.21 1762.24 C 1746.07 1757.753 1748 1751.553 1748 1743.64 C 1748 1735.827 1746.097 1729.677 1742.29 1725.19 C 1738.477 1720.703 1733.147 1718.46 1726.3 1718.46 C 1719.447 1718.46 1714.067 1720.703 1710.16 1725.19 C 1706.253 1729.677 1704.3 1735.827 1704.3 1743.64 C 1704.3 1751.553 1706.253 1757.753 1710.16 1762.24 C 1714.067 1766.72 1719.447 1768.96 1726.3 1768.96 ZM 1854.171 1708.62 C 1860.344 1708.62 1865.798 1710.117 1870.531 1713.11 C 1875.258 1716.103 1878.921 1720.347 1881.521 1725.84 C 1884.128 1731.34 1885.431 1737.707 1885.431 1744.94 C 1885.431 1752.273 1884.128 1758.713 1881.521 1764.26 C 1878.921 1769.807 1875.258 1774.123 1870.531 1777.21 C 1865.798 1780.297 1860.344 1781.84 1854.171 1781.84 C 1848.678 1781.84 1843.881 1780.637 1839.781 1778.23 C 1835.681 1775.817 1832.568 1772.39 1830.441 1767.95 L 1830.441 1775.77 C 1830.441 1777.503 1829.934 1778.9 1828.921 1779.96 C 1827.908 1781.02 1826.488 1781.55 1824.661 1781.55 C 1822.828 1781.55 1821.378 1781.02 1820.311 1779.96 C 1819.251 1778.9 1818.721 1777.503 1818.721 1775.77 L 1818.721 1683.74 C 1818.721 1682.1 1819.251 1680.747 1820.311 1679.68 C 1821.378 1678.62 1822.828 1678.09 1824.661 1678.09 C 1826.488 1678.09 1827.908 1678.597 1828.921 1679.61 C 1829.934 1680.623 1830.441 1682 1830.441 1683.74 L 1830.441 1722.52 C 1832.568 1718.08 1835.681 1714.653 1839.781 1712.24 C 1843.881 1709.827 1848.678 1708.62 1854.171 1708.62 Z M 1851.861 1772.15 C 1858.708 1772.15 1864.014 1769.763 1867.781 1764.99 C 1871.541 1760.21 1873.421 1753.527 1873.421 1744.94 C 1873.421 1736.553 1871.541 1730.043 1867.781 1725.41 C 1864.014 1720.777 1858.708 1718.46 1851.861 1718.46 C 1845.014 1718.46 1839.731 1720.777 1836.011 1725.41 C 1832.298 1730.043 1830.441 1736.65 1830.441 1745.23 C 1830.441 1753.817 1832.298 1760.45 1836.011 1765.13 C 1839.731 1769.81 1845.014 1772.15 1851.861 1772.15 ZM 1908.852 1781.55 C 1907.112 1781.55 1905.688 1781.043 1904.582 1780.03 C 1903.468 1779.017 1902.912 1777.597 1902.912 1775.77 L 1902.912 1683.88 C 1902.912 1682.047 1903.468 1680.623 1904.582 1679.61 C 1905.688 1678.597 1907.112 1678.09 1908.852 1678.09 C 1910.492 1678.09 1911.865 1678.597 1912.972 1679.61 C 1914.078 1680.623 1914.632 1682.047 1914.632 1683.88 L 1914.632 1775.77 C 1914.632 1777.597 1914.078 1779.017 1912.972 1780.03 C 1911.865 1781.043 1910.492 1781.55 1908.852 1781.55 ZM 1965.702 1781.84 C 1959.049 1781.84 1953.189 1780.347 1948.122 1777.36 C 1943.055 1774.367 1939.149 1770.097 1936.402 1764.55 C 1933.655 1759.003 1932.282 1752.563 1932.282 1745.23 C 1932.282 1737.903 1933.655 1731.467 1936.402 1725.92 C 1939.149 1720.373 1943.055 1716.103 1948.122 1713.11 C 1953.189 1710.117 1959.049 1708.62 1965.702 1708.62 C 1972.362 1708.62 1978.249 1710.117 1983.362 1713.11 C 1988.469 1716.103 1992.399 1720.373 1995.152 1725.92 C 1997.899 1731.467 1999.272 1737.903 1999.272 1745.23 C 1999.272 1752.563 1997.899 1759.003 1995.152 1764.55 C 1992.399 1770.097 1988.469 1774.367 1983.362 1777.36 C 1978.249 1780.347 1972.362 1781.84 1965.702 1781.84 Z M 1965.702 1772.15 C 1972.649 1772.15 1977.979 1769.857 1981.692 1765.27 C 1985.405 1760.69 1987.262 1754.01 1987.262 1745.23 C 1987.262 1736.65 1985.382 1730.02 1981.622 1725.34 C 1977.862 1720.66 1972.555 1718.32 1965.702 1718.32 C 1958.855 1718.32 1953.549 1720.66 1949.782 1725.34 C 1946.022 1730.02 1944.142 1736.65 1944.142 1745.23 C 1944.142 1753.917 1945.999 1760.573 1949.712 1765.2 C 1953.425 1769.833 1958.755 1772.15 1965.702 1772.15 ZM 2045.847 1781.84 C 2039.287 1781.84 2033.474 1780.347 2028.407 1777.36 C 2023.34 1774.367 2019.434 1770.12 2016.687 1764.62 C 2013.94 1759.127 2012.567 1752.76 2012.567 1745.52 C 2012.567 1738.287 2013.987 1731.873 2016.827 1726.28 C 2019.674 1720.687 2023.654 1716.347 2028.767 1713.26 C 2033.88 1710.167 2039.767 1708.62 2046.427 1708.62 C 2050.087 1708.62 2053.727 1709.127 2057.347 1710.14 C 2060.967 1711.153 2064.127 1712.627 2066.827 1714.56 C 2068.56 1715.713 2069.79 1716.847 2070.517 1717.96 C 2071.237 1719.067 2071.597 1720.297 2071.597 1721.65 C 2071.597 1722.997 2071.237 1724.107 2070.517 1724.98 C 2069.79 1725.847 2068.85 1726.28 2067.697 1726.28 C 2067.017 1726.28 2066.294 1726.087 2065.527 1725.7 C 2064.754 1725.313 2064.1 1724.927 2063.567 1724.54 C 2063.04 1724.153 2062.68 1723.913 2062.487 1723.82 C 2059.98 1722.18 2057.594 1720.877 2055.327 1719.91 C 2053.054 1718.943 2050.277 1718.46 2046.997 1718.46 C 2039.957 1718.46 2034.484 1720.85 2030.577 1725.63 C 2026.67 1730.403 2024.717 1737.033 2024.717 1745.52 C 2024.717 1754.013 2026.67 1760.573 2030.577 1765.2 C 2034.484 1769.833 2039.957 1772.15 2046.997 1772.15 C 2050.277 1772.15 2053.1 1771.667 2055.467 1770.7 C 2057.827 1769.733 2060.214 1768.43 2062.627 1766.79 C 2063.687 1766.117 2064.7 1765.54 2065.667 1765.06 C 2066.634 1764.573 2067.454 1764.33 2068.127 1764.33 C 2069.187 1764.33 2070.08 1764.767 2070.807 1765.64 C 2071.527 1766.507 2071.887 1767.613 2071.887 1768.96 C 2071.887 1770.22 2071.55 1771.357 2070.877 1772.37 C 2070.204 1773.377 2068.95 1774.51 2067.117 1775.77 C 2064.417 1777.597 2061.16 1779.067 2057.347 1780.18 C 2053.54 1781.287 2049.707 1781.84 2045.847 1781.84 ZM 2142.338 1771.57 C 2143.885 1773.017 2144.658 1774.56 2144.658 1776.2 C 2144.658 1777.647 2144.151 1778.9 2143.138 1779.96 C 2142.125 1781.02 2140.895 1781.55 2139.448 1781.55 C 2138.195 1781.55 2136.891 1780.973 2135.538 1779.82 L 2097.768 1747.26 L 2097.768 1775.77 C 2097.768 1777.597 2097.215 1779.017 2096.108 1780.03 C 2095.001 1781.043 2093.628 1781.55 2091.988 1781.55 C 2090.248 1781.55 2088.825 1781.043 2087.718 1780.03 C 2086.605 1779.017 2086.048 1777.597 2086.048 1775.77 L 2086.048 1683.88 C 2086.048 1682.047 2086.605 1680.623 2087.718 1679.61 C 2088.825 1678.597 2090.248 1678.09 2091.988 1678.09 C 2093.628 1678.09 2095.001 1678.597 2096.108 1679.61 C 2097.215 1680.623 2097.768 1682.047 2097.768 1683.88 L 2097.768 1742.63 L 2132.358 1710.94 C 2133.511 1709.78 2134.811 1709.2 2136.258 1709.2 C 2137.705 1709.2 2138.961 1709.733 2140.028 1710.8 C 2141.088 1711.86 2141.618 1713.113 2141.618 1714.56 C 2141.618 1716.2 2140.941 1717.647 2139.588 1718.9 L 2111.088 1744.37 L 2142.338 1771.57 ZM 2180.805 1781.84 C 2176.372 1781.84 2172.152 1781.31 2168.145 1780.25 C 2164.145 1779.19 2160.602 1777.697 2157.515 1775.77 C 2155.775 1774.61 2154.545 1773.523 2153.825 1772.51 C 2153.098 1771.497 2152.735 1770.267 2152.735 1768.82 C 2152.735 1767.567 2153.098 1766.53 2153.825 1765.71 C 2154.545 1764.89 2155.485 1764.48 2156.645 1764.48 C 2157.798 1764.48 2159.485 1765.203 2161.705 1766.65 C 2164.598 1768.383 2167.468 1769.757 2170.315 1770.77 C 2173.162 1771.783 2176.708 1772.29 2180.955 1772.29 C 2186.162 1772.29 2190.212 1771.373 2193.105 1769.54 C 2195.998 1767.707 2197.445 1765.053 2197.445 1761.58 C 2197.445 1759.46 2196.915 1757.75 2195.855 1756.45 C 2194.795 1755.143 2192.962 1753.987 2190.355 1752.98 C 2187.755 1751.967 2183.945 1750.927 2178.925 1749.86 C 2170.438 1748.027 2164.362 1745.567 2160.695 1742.48 C 2157.028 1739.393 2155.195 1735.2 2155.195 1729.9 C 2155.195 1725.747 2156.352 1722.08 2158.665 1718.9 C 2160.985 1715.713 2164.195 1713.203 2168.295 1711.37 C 2172.395 1709.537 2177.048 1708.62 2182.255 1708.62 C 2186.015 1708.62 2189.658 1709.127 2193.185 1710.14 C 2196.705 1711.153 2199.815 1712.577 2202.515 1714.41 C 2205.795 1716.73 2207.435 1719.143 2207.435 1721.65 C 2207.435 1722.903 2207.048 1723.963 2206.275 1724.83 C 2205.502 1725.697 2204.585 1726.13 2203.525 1726.13 C 2202.365 1726.13 2200.628 1725.31 2198.315 1723.67 C 2195.615 1721.937 2193.058 1720.587 2190.645 1719.62 C 2188.238 1718.653 2185.248 1718.17 2181.675 1718.17 C 2177.142 1718.17 2173.502 1719.183 2170.755 1721.21 C 2168.002 1723.237 2166.625 1725.94 2166.625 1729.32 C 2166.625 1731.44 2167.132 1733.15 2168.145 1734.45 C 2169.158 1735.757 2170.848 1736.917 2173.215 1737.93 C 2175.575 1738.943 2178.975 1739.93 2183.415 1740.89 C 2189.975 1742.337 2195.062 1743.93 2198.675 1745.67 C 2202.295 1747.403 2204.878 1749.523 2206.425 1752.03 C 2207.965 1754.543 2208.735 1757.727 2208.735 1761.58 C 2208.735 1767.66 2206.178 1772.557 2201.065 1776.27 C 2195.952 1779.983 2189.198 1781.84 2180.805 1781.84 ZM 2294.942 1688.08 C 2289.829 1688.467 2285.972 1690.08 2283.372 1692.92 C 2280.766 1695.767 2279.462 1700.037 2279.462 1705.73 L 2279.462 1710.36 L 2295.522 1710.36 C 2297.162 1710.36 2298.416 1710.793 2299.282 1711.66 C 2300.156 1712.533 2300.592 1713.693 2300.592 1715.14 C 2300.592 1716.587 2300.156 1717.693 2299.282 1718.46 C 2298.416 1719.233 2297.162 1719.62 2295.522 1719.62 L 2279.462 1719.62 L 2279.462 1775.77 C 2279.462 1777.597 2278.909 1779.017 2277.802 1780.03 C 2276.689 1781.043 2275.312 1781.55 2273.672 1781.55 C 2271.939 1781.55 2270.516 1781.043 2269.402 1780.03 C 2268.296 1779.017 2267.742 1777.597 2267.742 1775.77 L 2267.742 1719.62 L 2258.042 1719.62 C 2256.402 1719.62 2255.126 1719.21 2254.212 1718.39 C 2253.299 1717.57 2252.842 1716.487 2252.842 1715.14 C 2252.842 1713.693 2253.299 1712.533 2254.212 1711.66 C 2255.126 1710.793 2256.402 1710.36 2258.042 1710.36 L 2267.742 1710.36 L 2267.742 1707.76 C 2267.742 1699.073 2269.912 1692.247 2274.252 1687.28 C 2278.592 1682.313 2284.816 1679.54 2292.922 1678.96 L 2296.682 1678.67 C 2299.189 1678.477 2300.999 1678.72 2302.112 1679.4 C 2303.219 1680.073 2303.772 1681.277 2303.772 1683.01 C 2303.772 1685.81 2302.086 1687.403 2298.712 1687.79 L 2294.942 1688.08 ZM 2339.787 1781.84 C 2333.133 1781.84 2327.273 1780.347 2322.207 1777.36 C 2317.14 1774.367 2313.233 1770.097 2310.487 1764.55 C 2307.74 1759.003 2306.367 1752.563 2306.367 1745.23 C 2306.367 1737.903 2307.74 1731.467 2310.487 1725.92 C 2313.233 1720.373 2317.14 1716.103 2322.207 1713.11 C 2327.273 1710.117 2333.133 1708.62 2339.787 1708.62 C 2346.447 1708.62 2352.333 1710.117 2357.447 1713.11 C 2362.553 1716.103 2366.483 1720.373 2369.237 1725.92 C 2371.983 1731.467 2373.357 1737.903 2373.357 1745.23 C 2373.357 1752.563 2371.983 1759.003 2369.237 1764.55 C 2366.483 1770.097 2362.553 1774.367 2357.447 1777.36 C 2352.333 1780.347 2346.447 1781.84 2339.787 1781.84 Z M 2339.787 1772.15 C 2346.733 1772.15 2352.063 1769.857 2355.777 1765.27 C 2359.49 1760.69 2361.347 1754.01 2361.347 1745.23 C 2361.347 1736.65 2359.467 1730.02 2355.707 1725.34 C 2351.947 1720.66 2346.64 1718.32 2339.787 1718.32 C 2332.94 1718.32 2327.633 1720.66 2323.867 1725.34 C 2320.107 1730.02 2318.227 1736.65 2318.227 1745.23 C 2318.227 1753.917 2320.083 1760.573 2323.797 1765.2 C 2327.51 1769.833 2332.84 1772.15 2339.787 1772.15 ZM 2425.721 1708.91 C 2429.768 1708.623 2431.791 1710.263 2431.791 1713.83 C 2431.791 1715.377 2431.358 1716.607 2430.491 1717.52 C 2429.625 1718.44 2428.128 1718.997 2426.001 1719.19 L 2421.661 1719.62 C 2415.201 1720.2 2410.405 1722.493 2407.271 1726.5 C 2404.131 1730.5 2402.561 1735.2 2402.561 1740.6 L 2402.561 1775.77 C 2402.561 1777.697 2402.031 1779.143 2400.971 1780.11 C 2399.911 1781.07 2398.515 1781.55 2396.781 1781.55 C 2395.041 1781.55 2393.618 1781.043 2392.511 1780.03 C 2391.398 1779.017 2390.841 1777.597 2390.841 1775.77 L 2390.841 1714.7 C 2390.841 1712.867 2391.421 1711.443 2392.581 1710.43 C 2393.741 1709.417 2395.141 1708.91 2396.781 1708.91 C 2398.321 1708.91 2399.621 1709.417 2400.681 1710.43 C 2401.741 1711.443 2402.271 1712.82 2402.271 1714.56 L 2402.271 1722.66 C 2404.298 1718.413 2407.168 1715.183 2410.881 1712.97 C 2414.595 1710.75 2418.865 1709.447 2423.691 1709.06 L 2425.721 1708.91 ZM 2511.787 1772.29 C 2515.16 1772.583 2516.847 1774.127 2516.847 1776.92 C 2516.847 1778.56 2516.247 1779.79 2515.047 1780.61 C 2513.84 1781.43 2512.03 1781.743 2509.617 1781.55 L 2505.707 1781.26 C 2497.994 1780.687 2492.304 1778.373 2488.637 1774.32 C 2484.97 1770.267 2483.137 1764.14 2483.137 1755.94 L 2483.137 1719.62 L 2473.437 1719.62 C 2471.797 1719.62 2470.52 1719.21 2469.607 1718.39 C 2468.694 1717.57 2468.237 1716.487 2468.237 1715.14 C 2468.237 1713.693 2468.694 1712.533 2469.607 1711.66 C 2470.52 1710.793 2471.797 1710.36 2473.437 1710.36 L 2483.137 1710.36 L 2483.137 1694.01 C 2483.137 1692.177 2483.667 1690.753 2484.727 1689.74 C 2485.787 1688.727 2487.234 1688.22 2489.067 1688.22 C 2490.807 1688.22 2492.207 1688.727 2493.267 1689.74 C 2494.327 1690.753 2494.857 1692.177 2494.857 1694.01 L 2494.857 1710.36 L 2510.917 1710.36 C 2512.464 1710.36 2513.694 1710.793 2514.607 1711.66 C 2515.527 1712.533 2515.987 1713.693 2515.987 1715.14 C 2515.987 1716.487 2515.527 1717.57 2514.607 1718.39 C 2513.694 1719.21 2512.464 1719.62 2510.917 1719.62 L 2494.857 1719.62 L 2494.857 1756.52 C 2494.857 1761.827 2495.944 1765.66 2498.117 1768.02 C 2500.284 1770.387 2503.537 1771.713 2507.877 1772 L 2511.787 1772.29 ZM 2564.011 1708.62 C 2572.304 1708.62 2578.574 1710.96 2582.821 1715.64 C 2587.067 1720.32 2589.191 1727.29 2589.191 1736.55 L 2589.191 1775.77 C 2589.191 1777.597 2588.657 1779.017 2587.591 1780.03 C 2586.531 1781.043 2585.134 1781.55 2583.401 1781.55 C 2581.567 1781.55 2580.121 1781.043 2579.061 1780.03 C 2578.001 1779.017 2577.471 1777.597 2577.471 1775.77 L 2577.471 1736.84 C 2577.471 1730.573 2576.191 1725.943 2573.631 1722.95 C 2571.077 1719.957 2567.001 1718.46 2561.401 1718.46 C 2554.941 1718.46 2549.781 1720.44 2545.921 1724.4 C 2542.061 1728.353 2540.131 1733.707 2540.131 1740.46 L 2540.131 1775.77 C 2540.131 1777.597 2539.624 1779.017 2538.611 1780.03 C 2537.597 1781.043 2536.177 1781.55 2534.351 1781.55 C 2532.517 1781.55 2531.067 1781.043 2530.001 1780.03 C 2528.941 1779.017 2528.411 1777.597 2528.411 1775.77 L 2528.411 1683.74 C 2528.411 1682.1 2528.967 1680.747 2530.081 1679.68 C 2531.187 1678.62 2532.611 1678.09 2534.351 1678.09 C 2536.177 1678.09 2537.597 1678.597 2538.611 1679.61 C 2539.624 1680.623 2540.131 1682 2540.131 1683.74 L 2540.131 1721.65 C 2542.451 1717.403 2545.684 1714.17 2549.831 1711.95 C 2553.977 1709.73 2558.704 1708.62 2564.011 1708.62 ZM 2665.126 1764.48 C 2666.193 1764.48 2667.109 1764.913 2667.876 1765.78 C 2668.649 1766.647 2669.036 1767.757 2669.036 1769.11 C 2669.036 1771.523 2667.349 1773.743 2663.976 1775.77 C 2660.503 1777.79 2656.836 1779.307 2652.976 1780.32 C 2649.116 1781.333 2645.353 1781.84 2641.686 1781.84 C 2630.786 1781.84 2622.176 1778.61 2615.856 1772.15 C 2609.543 1765.683 2606.386 1756.76 2606.386 1745.38 C 2606.386 1738.147 2607.783 1731.757 2610.576 1726.21 C 2613.376 1720.663 2617.309 1716.347 2622.376 1713.26 C 2627.436 1710.167 2633.199 1708.62 2639.666 1708.62 C 2648.826 1708.62 2656.109 1711.613 2661.516 1717.6 C 2666.916 1723.58 2669.616 1731.683 2669.616 1741.91 C 2669.616 1743.837 2669.229 1745.233 2668.456 1746.1 C 2667.683 1746.967 2666.429 1747.4 2664.696 1747.4 L 2618.106 1747.4 C 2618.973 1763.993 2626.833 1772.29 2641.686 1772.29 C 2645.453 1772.29 2648.686 1771.783 2651.386 1770.77 C 2654.086 1769.757 2656.979 1768.383 2660.066 1766.65 C 2662.573 1765.203 2664.259 1764.48 2665.126 1764.48 Z M 2639.806 1717.74 C 2633.633 1717.74 2628.689 1719.67 2624.976 1723.53 C 2621.263 1727.39 2619.069 1732.84 2618.396 1739.88 L 2659.346 1739.88 C 2659.153 1732.74 2657.366 1727.267 2653.986 1723.46 C 2650.613 1719.647 2645.886 1717.74 2639.806 1717.74 ZM 2778.682 1764.48 C 2779.749 1764.48 2780.666 1764.913 2781.432 1765.78 C 2782.206 1766.647 2782.592 1767.757 2782.592 1769.11 C 2782.592 1771.523 2780.906 1773.743 2777.532 1775.77 C 2774.059 1777.79 2770.392 1779.307 2766.532 1780.32 C 2762.672 1781.333 2758.909 1781.84 2755.242 1781.84 C 2744.342 1781.84 2735.732 1778.61 2729.412 1772.15 C 2723.099 1765.683 2719.942 1756.76 2719.942 1745.38 C 2719.942 1738.147 2721.339 1731.757 2724.132 1726.21 C 2726.932 1720.663 2730.866 1716.347 2735.932 1713.26 C 2740.992 1710.167 2746.756 1708.62 2753.222 1708.62 C 2762.382 1708.62 2769.666 1711.613 2775.072 1717.6 C 2780.472 1723.58 2783.172 1731.683 2783.172 1741.91 C 2783.172 1743.837 2782.786 1745.233 2782.012 1746.1 C 2781.239 1746.967 2779.986 1747.4 2778.252 1747.4 L 2731.662 1747.4 C 2732.529 1763.993 2740.389 1772.29 2755.242 1772.29 C 2759.009 1772.29 2762.242 1771.783 2764.942 1770.77 C 2767.642 1769.757 2770.536 1768.383 2773.622 1766.65 C 2776.129 1765.203 2777.816 1764.48 2778.682 1764.48 Z M 2753.362 1717.74 C 2747.189 1717.74 2742.246 1719.67 2738.532 1723.53 C 2734.819 1727.39 2732.626 1732.84 2731.952 1739.88 L 2772.902 1739.88 C 2772.709 1732.74 2770.922 1727.267 2767.542 1723.46 C 2764.169 1719.647 2759.442 1717.74 2753.362 1717.74 ZM 2829.167 1708.62 C 2846.82 1708.62 2855.647 1717.883 2855.647 1736.41 L 2855.647 1775.77 C 2855.647 1777.503 2855.14 1778.9 2854.127 1779.96 C 2853.113 1781.02 2851.737 1781.55 2849.997 1781.55 C 2848.263 1781.55 2846.867 1781.02 2845.807 1779.96 C 2844.747 1778.9 2844.217 1777.503 2844.217 1775.77 L 2844.217 1768.82 C 2842.383 1772.967 2839.583 1776.173 2835.817 1778.44 C 2832.057 1780.707 2827.717 1781.84 2822.797 1781.84 C 2818.263 1781.84 2814.09 1780.923 2810.277 1779.09 C 2806.47 1777.257 2803.457 1774.7 2801.237 1771.42 C 2799.017 1768.14 2797.907 1764.523 2797.907 1760.57 C 2797.907 1755.263 2799.257 1751.14 2801.957 1748.2 C 2804.663 1745.26 2809.103 1743.137 2815.277 1741.83 C 2821.45 1740.53 2830.033 1739.88 2841.027 1739.88 L 2844.217 1739.88 L 2844.217 1735.1 C 2844.217 1729.313 2843.033 1725.07 2840.667 1722.37 C 2838.307 1719.67 2834.473 1718.32 2829.167 1718.32 C 2822.607 1718.32 2815.95 1720.103 2809.197 1723.67 C 2806.59 1725.31 2804.757 1726.13 2803.697 1726.13 C 2802.537 1726.13 2801.573 1725.697 2800.807 1724.83 C 2800.033 1723.963 2799.647 1722.853 2799.647 1721.5 C 2799.647 1720.153 2800.057 1718.973 2800.877 1717.96 C 2801.697 1716.947 2803.023 1715.91 2804.857 1714.85 C 2808.23 1712.917 2812.063 1711.397 2816.357 1710.29 C 2820.65 1709.177 2824.92 1708.62 2829.167 1708.62 Z M 2824.387 1772.58 C 2830.173 1772.58 2834.927 1770.627 2838.647 1766.72 C 2842.36 1762.813 2844.217 1757.773 2844.217 1751.6 L 2844.217 1747.4 L 2841.607 1747.4 C 2833.12 1747.4 2826.657 1747.763 2822.217 1748.49 C 2817.783 1749.21 2814.623 1750.417 2812.737 1752.11 C 2810.857 1753.797 2809.917 1756.28 2809.917 1759.56 C 2809.917 1763.32 2811.293 1766.43 2814.047 1768.89 C 2816.793 1771.35 2820.24 1772.58 2824.387 1772.58 ZM 2900.765 1781.84 C 2896.332 1781.84 2892.112 1781.31 2888.105 1780.25 C 2884.105 1779.19 2880.562 1777.697 2877.475 1775.77 C 2875.735 1774.61 2874.505 1773.523 2873.785 1772.51 C 2873.058 1771.497 2872.695 1770.267 2872.695 1768.82 C 2872.695 1767.567 2873.058 1766.53 2873.785 1765.71 C 2874.505 1764.89 2875.445 1764.48 2876.605 1764.48 C 2877.758 1764.48 2879.445 1765.203 2881.665 1766.65 C 2884.558 1768.383 2887.428 1769.757 2890.275 1770.77 C 2893.122 1771.783 2896.668 1772.29 2900.915 1772.29 C 2906.122 1772.29 2910.172 1771.373 2913.065 1769.54 C 2915.958 1767.707 2917.405 1765.053 2917.405 1761.58 C 2917.405 1759.46 2916.875 1757.75 2915.815 1756.45 C 2914.755 1755.143 2912.922 1753.987 2910.315 1752.98 C 2907.715 1751.967 2903.905 1750.927 2898.885 1749.86 C 2890.398 1748.027 2884.322 1745.567 2880.655 1742.48 C 2876.988 1739.393 2875.155 1735.2 2875.155 1729.9 C 2875.155 1725.747 2876.312 1722.08 2878.625 1718.9 C 2880.945 1715.713 2884.155 1713.203 2888.255 1711.37 C 2892.355 1709.537 2897.008 1708.62 2902.215 1708.62 C 2905.975 1708.62 2909.618 1709.127 2913.145 1710.14 C 2916.665 1711.153 2919.775 1712.577 2922.475 1714.41 C 2925.755 1716.73 2927.395 1719.143 2927.395 1721.65 C 2927.395 1722.903 2927.008 1723.963 2926.235 1724.83 C 2925.462 1725.697 2924.545 1726.13 2923.485 1726.13 C 2922.325 1726.13 2920.588 1725.31 2918.275 1723.67 C 2915.575 1721.937 2913.018 1720.587 2910.605 1719.62 C 2908.198 1718.653 2905.208 1718.17 2901.635 1718.17 C 2897.102 1718.17 2893.462 1719.183 2890.715 1721.21 C 2887.962 1723.237 2886.585 1725.94 2886.585 1729.32 C 2886.585 1731.44 2887.092 1733.15 2888.105 1734.45 C 2889.118 1735.757 2890.808 1736.917 2893.175 1737.93 C 2895.535 1738.943 2898.935 1739.93 2903.375 1740.89 C 2909.935 1742.337 2915.022 1743.93 2918.635 1745.67 C 2922.255 1747.403 2924.838 1749.523 2926.385 1752.03 C 2927.925 1754.543 2928.695 1757.727 2928.695 1761.58 C 2928.695 1767.66 2926.138 1772.557 2921.025 1776.27 C 2915.912 1779.983 2909.158 1781.84 2900.765 1781.84 ZM 2995.959 1712.53 C 2997.019 1710.217 2998.709 1709.06 3001.029 1709.06 C 3002.476 1709.06 3003.776 1709.543 3004.929 1710.51 C 3006.089 1711.47 3006.669 1712.673 3006.669 1714.12 C 3006.669 1714.993 3006.476 1715.767 3006.089 1716.44 L 2965.429 1804.13 C 2964.949 1805.19 2964.249 1806.01 2963.329 1806.59 C 2962.416 1807.163 2961.476 1807.45 2960.509 1807.45 C 2959.062 1807.45 2957.786 1806.993 2956.679 1806.08 C 2955.566 1805.167 2955.009 1803.983 2955.009 1802.53 C 2955.009 1801.763 2955.202 1800.993 2955.589 1800.22 L 2965.719 1778.37 L 2937.069 1716.44 C 2936.682 1715.767 2936.489 1715.043 2936.489 1714.27 C 2936.489 1712.823 2937.139 1711.57 2938.439 1710.51 C 2939.746 1709.443 2941.169 1708.91 2942.709 1708.91 C 2943.676 1708.91 2944.616 1709.2 2945.529 1709.78 C 2946.449 1710.36 2947.149 1711.18 2947.629 1712.24 L 2971.799 1766.5 L 2995.959 1712.53 Z" transform="matrix(1, 0, 0, 1, 0, 0)" style="fill: rgb(229, 229, 229); line-height: 231.452px; white-space: pre;"/>
      <path d="M 3043.693 1781.99 C 3033.179 1781.99 3024.689 1779.917 3018.223 1775.77 C 3015.136 1773.937 3013.593 1771.33 3013.593 1767.95 C 3013.593 1766.023 3014.123 1764.457 3015.183 1763.25 C 3016.243 1762.043 3017.546 1761.44 3019.093 1761.44 C 3020.733 1761.44 3022.999 1762.213 3025.893 1763.76 C 3028.979 1765.207 3031.799 1766.313 3034.353 1767.08 C 3036.913 1767.853 3040.169 1768.24 3044.123 1768.24 C 3048.176 1768.24 3051.336 1767.567 3053.603 1766.22 C 3055.869 1764.867 3057.003 1762.983 3057.003 1760.57 C 3057.003 1758.93 3056.546 1757.63 3055.633 1756.67 C 3054.713 1755.703 3053.073 1754.81 3050.713 1753.99 C 3048.346 1753.17 3044.753 1752.23 3039.933 1751.17 C 3031.346 1749.43 3025.196 1746.97 3021.483 1743.79 C 3017.763 1740.603 3015.903 1736.213 3015.903 1730.62 C 3015.903 1726.373 3017.159 1722.54 3019.673 1719.12 C 3022.179 1715.693 3025.626 1713.04 3030.013 1711.16 C 3034.406 1709.28 3039.399 1708.34 3044.993 1708.34 C 3049.046 1708.34 3052.953 1708.843 3056.713 1709.85 C 3060.473 1710.863 3063.849 1712.337 3066.843 1714.27 C 3069.929 1716.197 3071.473 1718.753 3071.473 1721.94 C 3071.473 1723.867 3070.943 1725.48 3069.883 1726.78 C 3068.823 1728.087 3067.519 1728.74 3065.973 1728.74 C 3064.913 1728.74 3063.876 1728.523 3062.863 1728.09 C 3061.849 1727.657 3060.573 1727.003 3059.033 1726.13 C 3056.233 1724.683 3053.819 1723.6 3051.793 1722.88 C 3049.766 1722.153 3047.259 1721.79 3044.273 1721.79 C 3040.699 1721.79 3037.876 1722.513 3035.803 1723.96 C 3033.729 1725.407 3032.693 1727.387 3032.693 1729.9 C 3032.693 1732.307 3033.753 1734.137 3035.873 1735.39 C 3037.999 1736.65 3042.099 1737.907 3048.173 1739.16 C 3054.639 1740.507 3059.706 1742.05 3063.373 1743.79 C 3067.039 1745.523 3069.666 1747.693 3071.253 1750.3 C 3072.846 1752.907 3073.643 1756.233 3073.643 1760.28 C 3073.643 1766.84 3070.916 1772.097 3065.463 1776.05 C 3060.016 1780.01 3052.759 1781.99 3043.693 1781.99 ZM 3119.642 1781.99 C 3112.595 1781.99 3106.395 1780.493 3101.042 1777.5 C 3095.688 1774.513 3091.565 1770.27 3088.672 1764.77 C 3085.778 1759.27 3084.332 1752.853 3084.332 1745.52 C 3084.332 1738.193 3085.852 1731.707 3088.892 1726.06 C 3091.925 1720.42 3096.192 1716.057 3101.692 1712.97 C 3107.192 1709.883 3113.512 1708.34 3120.652 1708.34 C 3124.412 1708.34 3128.198 1708.87 3132.012 1709.93 C 3135.818 1710.99 3139.168 1712.437 3142.062 1714.27 C 3145.148 1716.297 3146.692 1718.853 3146.692 1721.94 C 3146.692 1724.06 3146.185 1725.77 3145.172 1727.07 C 3144.165 1728.377 3142.842 1729.03 3141.202 1729.03 C 3140.135 1729.03 3139.025 1728.787 3137.872 1728.3 C 3136.712 1727.82 3135.552 1727.243 3134.392 1726.57 C 3132.272 1725.317 3130.248 1724.327 3128.322 1723.6 C 3126.388 1722.88 3124.168 1722.52 3121.662 1722.52 C 3115.682 1722.52 3111.075 1724.473 3107.842 1728.38 C 3104.608 1732.287 3102.992 1737.903 3102.992 1745.23 C 3102.992 1752.47 3104.608 1758.043 3107.842 1761.95 C 3111.075 1765.857 3115.682 1767.81 3121.662 1767.81 C 3124.075 1767.81 3126.222 1767.447 3128.102 1766.72 C 3129.982 1766 3132.078 1765.013 3134.392 1763.76 C 3135.845 1762.887 3137.102 1762.233 3138.162 1761.8 C 3139.222 1761.367 3140.282 1761.15 3141.342 1761.15 C 3142.888 1761.15 3144.192 1761.827 3145.252 1763.18 C 3146.312 1764.527 3146.842 1766.213 3146.842 1768.24 C 3146.842 1769.88 3146.478 1771.303 3145.752 1772.51 C 3145.032 1773.717 3143.852 1774.803 3142.212 1775.77 C 3139.218 1777.697 3135.745 1779.213 3131.792 1780.32 C 3127.838 1781.433 3123.788 1781.99 3119.642 1781.99 ZM 3167.804 1781.7 C 3165.198 1781.7 3163.051 1780.953 3161.364 1779.46 C 3159.678 1777.96 3158.834 1775.813 3158.834 1773.02 L 3158.834 1717.16 C 3158.834 1714.367 3159.678 1712.247 3161.364 1710.8 C 3163.051 1709.347 3165.198 1708.62 3167.804 1708.62 C 3170.404 1708.62 3172.574 1709.347 3174.314 1710.8 C 3176.048 1712.247 3176.914 1714.367 3176.914 1717.16 L 3176.914 1773.02 C 3176.914 1775.813 3176.048 1777.96 3174.314 1779.46 C 3172.574 1780.953 3170.404 1781.7 3167.804 1781.7 Z M 3167.804 1695.75 C 3164.524 1695.75 3161.918 1694.857 3159.984 1693.07 C 3158.058 1691.283 3157.094 1688.943 3157.094 1686.05 C 3157.094 1683.157 3158.058 1680.843 3159.984 1679.11 C 3161.918 1677.37 3164.524 1676.5 3167.804 1676.5 C 3170.984 1676.5 3173.564 1677.37 3175.544 1679.11 C 3177.518 1680.843 3178.504 1683.157 3178.504 1686.05 C 3178.504 1688.943 3177.541 1691.283 3175.614 1693.07 C 3173.688 1694.857 3171.084 1695.75 3167.804 1695.75 ZM 3251.567 1761.44 C 3253.207 1761.44 3254.534 1762.067 3255.547 1763.32 C 3256.561 1764.573 3257.067 1766.263 3257.067 1768.39 C 3257.067 1771.377 3255.284 1773.883 3251.717 1775.91 C 3248.437 1777.743 3244.724 1779.213 3240.577 1780.32 C 3236.431 1781.433 3232.474 1781.99 3228.707 1781.99 C 3217.327 1781.99 3208.307 1778.71 3201.647 1772.15 C 3194.994 1765.59 3191.667 1756.617 3191.667 1745.23 C 3191.667 1737.997 3193.114 1731.583 3196.007 1725.99 C 3198.901 1720.397 3202.977 1716.057 3208.237 1712.97 C 3213.491 1709.883 3219.447 1708.34 3226.107 1708.34 C 3232.474 1708.34 3238.021 1709.737 3242.747 1712.53 C 3247.474 1715.33 3251.137 1719.287 3253.737 1724.4 C 3256.344 1729.513 3257.647 1735.54 3257.647 1742.48 C 3257.647 1746.633 3255.814 1748.71 3252.147 1748.71 L 3209.467 1748.71 C 3210.041 1755.363 3211.921 1760.257 3215.107 1763.39 C 3218.294 1766.53 3222.924 1768.1 3228.997 1768.1 C 3232.084 1768.1 3234.811 1767.713 3237.177 1766.94 C 3239.537 1766.167 3242.214 1765.107 3245.207 1763.76 C 3248.101 1762.213 3250.221 1761.44 3251.567 1761.44 Z M 3226.537 1721.07 C 3221.617 1721.07 3217.687 1722.613 3214.747 1725.7 C 3211.801 1728.787 3210.041 1733.223 3209.467 1739.01 L 3242.167 1739.01 C 3241.974 1733.13 3240.527 1728.67 3237.827 1725.63 C 3235.127 1722.59 3231.364 1721.07 3226.537 1721.07 ZM 3313.48 1708.34 C 3321.967 1708.34 3328.287 1710.75 3332.44 1715.57 C 3336.587 1720.397 3338.66 1727.68 3338.66 1737.42 L 3338.66 1773.02 C 3338.66 1775.72 3337.864 1777.84 3336.27 1779.38 C 3334.677 1780.927 3332.484 1781.7 3329.69 1781.7 C 3326.89 1781.7 3324.67 1780.927 3323.03 1779.38 C 3321.39 1777.84 3320.57 1775.72 3320.57 1773.02 L 3320.57 1738.43 C 3320.57 1732.937 3319.534 1728.933 3317.46 1726.42 C 3315.387 1723.913 3312.13 1722.66 3307.69 1722.66 C 3302.484 1722.66 3298.314 1724.3 3295.18 1727.58 C 3292.04 1730.86 3290.47 1735.25 3290.47 1740.75 L 3290.47 1773.02 C 3290.47 1775.72 3289.65 1777.84 3288.01 1779.38 C 3286.37 1780.927 3284.154 1781.7 3281.36 1781.7 C 3278.56 1781.7 3276.364 1780.927 3274.77 1779.38 C 3273.184 1777.84 3272.39 1775.72 3272.39 1773.02 L 3272.39 1717.02 C 3272.39 1714.513 3273.21 1712.487 3274.85 1710.94 C 3276.49 1709.393 3278.707 1708.62 3281.5 1708.62 C 3284.007 1708.62 3286.057 1709.37 3287.65 1710.87 C 3289.244 1712.363 3290.04 1714.317 3290.04 1716.73 L 3290.04 1720.63 C 3292.454 1716.677 3295.684 1713.64 3299.73 1711.52 C 3303.784 1709.4 3308.367 1708.34 3313.48 1708.34 ZM 3388.415 1781.99 C 3381.369 1781.99 3375.169 1780.493 3369.815 1777.5 C 3364.462 1774.513 3360.339 1770.27 3357.445 1764.77 C 3354.552 1759.27 3353.105 1752.853 3353.105 1745.52 C 3353.105 1738.193 3354.625 1731.707 3357.665 1726.06 C 3360.699 1720.42 3364.965 1716.057 3370.465 1712.97 C 3375.965 1709.883 3382.285 1708.34 3389.425 1708.34 C 3393.185 1708.34 3396.972 1708.87 3400.785 1709.93 C 3404.592 1710.99 3407.942 1712.437 3410.835 1714.27 C 3413.922 1716.297 3415.465 1718.853 3415.465 1721.94 C 3415.465 1724.06 3414.959 1725.77 3413.945 1727.07 C 3412.939 1728.377 3411.615 1729.03 3409.975 1729.03 C 3408.909 1729.03 3407.799 1728.787 3406.645 1728.3 C 3405.485 1727.82 3404.325 1727.243 3403.165 1726.57 C 3401.045 1725.317 3399.022 1724.327 3397.095 1723.6 C 3395.162 1722.88 3392.942 1722.52 3390.435 1722.52 C 3384.455 1722.52 3379.849 1724.473 3376.615 1728.38 C 3373.382 1732.287 3371.765 1737.903 3371.765 1745.23 C 3371.765 1752.47 3373.382 1758.043 3376.615 1761.95 C 3379.849 1765.857 3384.455 1767.81 3390.435 1767.81 C 3392.849 1767.81 3394.995 1767.447 3396.875 1766.72 C 3398.755 1766 3400.852 1765.013 3403.165 1763.76 C 3404.619 1762.887 3405.875 1762.233 3406.935 1761.8 C 3407.995 1761.367 3409.055 1761.15 3410.115 1761.15 C 3411.662 1761.15 3412.965 1761.827 3414.025 1763.18 C 3415.085 1764.527 3415.615 1766.213 3415.615 1768.24 C 3415.615 1769.88 3415.252 1771.303 3414.525 1772.51 C 3413.805 1773.717 3412.625 1774.803 3410.985 1775.77 C 3407.992 1777.697 3404.519 1779.213 3400.565 1780.32 C 3396.612 1781.433 3392.562 1781.99 3388.415 1781.99 ZM 3483.598 1761.44 C 3485.238 1761.44 3486.565 1762.067 3487.578 1763.32 C 3488.591 1764.573 3489.098 1766.263 3489.098 1768.39 C 3489.098 1771.377 3487.315 1773.883 3483.748 1775.91 C 3480.468 1777.743 3476.755 1779.213 3472.608 1780.32 C 3468.461 1781.433 3464.505 1781.99 3460.738 1781.99 C 3449.358 1781.99 3440.338 1778.71 3433.678 1772.15 C 3427.025 1765.59 3423.698 1756.617 3423.698 1745.23 C 3423.698 1737.997 3425.145 1731.583 3428.038 1725.99 C 3430.931 1720.397 3435.008 1716.057 3440.268 1712.97 C 3445.521 1709.883 3451.478 1708.34 3458.138 1708.34 C 3464.505 1708.34 3470.051 1709.737 3474.778 1712.53 C 3479.505 1715.33 3483.168 1719.287 3485.768 1724.4 C 3488.375 1729.513 3489.678 1735.54 3489.678 1742.48 C 3489.678 1746.633 3487.845 1748.71 3484.178 1748.71 L 3441.498 1748.71 C 3442.071 1755.363 3443.951 1760.257 3447.138 1763.39 C 3450.325 1766.53 3454.955 1768.1 3461.028 1768.1 C 3464.115 1768.1 3466.841 1767.713 3469.208 1766.94 C 3471.568 1766.167 3474.245 1765.107 3477.238 1763.76 C 3480.131 1762.213 3482.251 1761.44 3483.598 1761.44 Z M 3458.568 1721.07 C 3453.648 1721.07 3449.718 1722.613 3446.778 1725.7 C 3443.831 1728.787 3442.071 1733.223 3441.498 1739.01 L 3474.198 1739.01 C 3474.005 1733.13 3472.558 1728.67 3469.858 1725.63 C 3467.158 1722.59 3463.395 1721.07 3458.568 1721.07 Z" transform="matrix(1, 0, 0, 1, 0, 0)" style="fill: rgb(229, 229, 229); line-height: 231.452px; white-space: pre;"/>
      <path d="M 3596.723 1708.91 C 3598.557 1708.91 3599.98 1709.443 3600.993 1710.51 C 3602.007 1711.57 3602.513 1712.967 3602.513 1714.7 L 3602.513 1775.91 C 3602.513 1777.55 3602.007 1778.9 3600.993 1779.96 C 3599.98 1781.02 3598.557 1781.55 3596.723 1781.55 C 3594.99 1781.55 3593.617 1781.043 3592.603 1780.03 C 3591.59 1779.017 3591.083 1777.69 3591.083 1776.05 L 3591.083 1768.82 C 3588.863 1773.067 3585.753 1776.297 3581.753 1778.51 C 3577.747 1780.73 3573.237 1781.84 3568.223 1781.84 C 3559.83 1781.84 3553.51 1779.5 3549.263 1774.82 C 3545.017 1770.147 3542.893 1763.227 3542.893 1754.06 L 3542.893 1714.7 C 3542.893 1712.967 3543.423 1711.57 3544.483 1710.51 C 3545.55 1709.443 3547 1708.91 3548.833 1708.91 C 3550.667 1708.91 3552.087 1709.443 3553.093 1710.51 C 3554.107 1711.57 3554.613 1712.967 3554.613 1714.7 L 3554.613 1753.77 C 3554.613 1760.043 3555.87 1764.65 3558.383 1767.59 C 3560.89 1770.53 3564.843 1772 3570.243 1772 C 3576.417 1772 3581.387 1770 3585.153 1766 C 3588.913 1761.993 3590.793 1756.71 3590.793 1750.15 L 3590.793 1714.7 C 3590.793 1712.967 3591.323 1711.57 3592.383 1710.51 C 3593.443 1709.443 3594.89 1708.91 3596.723 1708.91 ZM 3659.786 1708.62 C 3676.673 1708.62 3685.116 1717.93 3685.116 1736.55 L 3685.116 1775.77 C 3685.116 1777.597 3684.61 1779.017 3683.596 1780.03 C 3682.583 1781.043 3681.16 1781.55 3679.326 1781.55 C 3677.493 1781.55 3676.046 1781.043 3674.986 1780.03 C 3673.926 1779.017 3673.396 1777.597 3673.396 1775.77 L 3673.396 1737.28 C 3673.396 1730.72 3672.116 1725.943 3669.556 1722.95 C 3667.003 1719.957 3662.926 1718.46 3657.326 1718.46 C 3650.866 1718.46 3645.706 1720.44 3641.846 1724.4 C 3637.986 1728.353 3636.056 1733.707 3636.056 1740.46 L 3636.056 1775.77 C 3636.056 1777.597 3635.55 1779.017 3634.536 1780.03 C 3633.523 1781.043 3632.103 1781.55 3630.276 1781.55 C 3628.443 1781.55 3626.993 1781.043 3625.926 1780.03 C 3624.866 1779.017 3624.336 1777.597 3624.336 1775.77 L 3624.336 1714.7 C 3624.336 1712.967 3624.866 1711.57 3625.926 1710.51 C 3626.993 1709.443 3628.443 1708.91 3630.276 1708.91 C 3632.01 1708.91 3633.383 1709.443 3634.396 1710.51 C 3635.41 1711.57 3635.916 1712.92 3635.916 1714.56 L 3635.916 1721.94 C 3638.23 1717.6 3641.46 1714.297 3645.606 1712.03 C 3649.76 1709.757 3654.486 1708.62 3659.786 1708.62 ZM 3712.442 1781.55 C 3710.702 1781.55 3709.279 1781.043 3708.172 1780.03 C 3707.059 1779.017 3706.502 1777.597 3706.502 1775.77 L 3706.502 1714.7 C 3706.502 1712.867 3707.059 1711.443 3708.172 1710.43 C 3709.279 1709.417 3710.702 1708.91 3712.442 1708.91 C 3714.175 1708.91 3715.572 1709.417 3716.632 1710.43 C 3717.692 1711.443 3718.222 1712.867 3718.222 1714.7 L 3718.222 1775.77 C 3718.222 1777.697 3717.692 1779.143 3716.632 1780.11 C 3715.572 1781.07 3714.175 1781.55 3712.442 1781.55 Z M 3712.442 1693.72 C 3710.122 1693.72 3708.239 1693.043 3706.792 1691.69 C 3705.345 1690.343 3704.622 1688.56 3704.622 1686.34 C 3704.622 1684.22 3705.345 1682.483 3706.792 1681.13 C 3708.239 1679.783 3710.122 1679.11 3712.442 1679.11 C 3714.755 1679.11 3716.635 1679.783 3718.082 1681.13 C 3719.529 1682.483 3720.252 1684.22 3720.252 1686.34 C 3720.252 1688.56 3719.529 1690.343 3718.082 1691.69 C 3716.635 1693.043 3714.755 1693.72 3712.442 1693.72 ZM 3790.852 1712.53 C 3791.912 1710.217 3793.602 1709.06 3795.922 1709.06 C 3797.369 1709.06 3798.669 1709.543 3799.822 1710.51 C 3800.982 1711.47 3801.562 1712.673 3801.562 1714.12 C 3801.562 1714.993 3801.369 1715.767 3800.982 1716.44 L 3772.762 1777.21 C 3772.189 1778.463 3771.322 1779.453 3770.162 1780.18 C 3769.002 1780.9 3767.749 1781.26 3766.402 1781.26 C 3765.149 1781.26 3763.942 1780.9 3762.782 1780.18 C 3761.622 1779.453 3760.706 1778.463 3760.032 1777.21 L 3731.962 1716.44 C 3731.576 1715.767 3731.382 1715.043 3731.382 1714.27 C 3731.382 1712.823 3732.032 1711.57 3733.332 1710.51 C 3734.639 1709.443 3736.062 1708.91 3737.602 1708.91 C 3738.569 1708.91 3739.509 1709.2 3740.422 1709.78 C 3741.342 1710.36 3742.042 1711.18 3742.522 1712.24 L 3766.692 1766.5 L 3790.852 1712.53 ZM 3868.098 1764.48 C 3869.165 1764.48 3870.082 1764.913 3870.848 1765.78 C 3871.622 1766.647 3872.008 1767.757 3872.008 1769.11 C 3872.008 1771.523 3870.322 1773.743 3866.948 1775.77 C 3863.475 1777.79 3859.808 1779.307 3855.948 1780.32 C 3852.088 1781.333 3848.325 1781.84 3844.658 1781.84 C 3833.758 1781.84 3825.148 1778.61 3818.828 1772.15 C 3812.515 1765.683 3809.358 1756.76 3809.358 1745.38 C 3809.358 1738.147 3810.755 1731.757 3813.548 1726.21 C 3816.348 1720.663 3820.282 1716.347 3825.348 1713.26 C 3830.408 1710.167 3836.172 1708.62 3842.638 1708.62 C 3851.798 1708.62 3859.082 1711.613 3864.488 1717.6 C 3869.888 1723.58 3872.588 1731.683 3872.588 1741.91 C 3872.588 1743.837 3872.202 1745.233 3871.428 1746.1 C 3870.655 1746.967 3869.402 1747.4 3867.668 1747.4 L 3821.078 1747.4 C 3821.945 1763.993 3829.805 1772.29 3844.658 1772.29 C 3848.425 1772.29 3851.658 1771.783 3854.358 1770.77 C 3857.058 1769.757 3859.952 1768.383 3863.038 1766.65 C 3865.545 1765.203 3867.232 1764.48 3868.098 1764.48 Z M 3842.778 1717.74 C 3836.605 1717.74 3831.662 1719.67 3827.948 1723.53 C 3824.235 1727.39 3822.042 1732.84 3821.368 1739.88 L 3862.318 1739.88 C 3862.125 1732.74 3860.338 1727.267 3856.958 1723.46 C 3853.585 1719.647 3848.858 1717.74 3842.778 1717.74 ZM 3924.663 1708.91 C 3928.71 1708.623 3930.733 1710.263 3930.733 1713.83 C 3930.733 1715.377 3930.3 1716.607 3929.433 1717.52 C 3928.566 1718.44 3927.07 1718.997 3924.943 1719.19 L 3920.603 1719.62 C 3914.143 1720.2 3909.346 1722.493 3906.213 1726.5 C 3903.073 1730.5 3901.503 1735.2 3901.503 1740.6 L 3901.503 1775.77 C 3901.503 1777.697 3900.973 1779.143 3899.913 1780.11 C 3898.853 1781.07 3897.456 1781.55 3895.723 1781.55 C 3893.983 1781.55 3892.56 1781.043 3891.453 1780.03 C 3890.34 1779.017 3889.783 1777.597 3889.783 1775.77 L 3889.783 1714.7 C 3889.783 1712.867 3890.363 1711.443 3891.523 1710.43 C 3892.683 1709.417 3894.083 1708.91 3895.723 1708.91 C 3897.263 1708.91 3898.563 1709.417 3899.623 1710.43 C 3900.683 1711.443 3901.213 1712.82 3901.213 1714.56 L 3901.213 1722.66 C 3903.24 1718.413 3906.11 1715.183 3909.823 1712.97 C 3913.536 1710.75 3917.806 1709.447 3922.633 1709.06 L 3924.663 1708.91 ZM 3963.854 1781.84 C 3959.42 1781.84 3955.2 1781.31 3951.194 1780.25 C 3947.194 1779.19 3943.65 1777.697 3940.564 1775.77 C 3938.824 1774.61 3937.594 1773.523 3936.874 1772.51 C 3936.147 1771.497 3935.784 1770.267 3935.784 1768.82 C 3935.784 1767.567 3936.147 1766.53 3936.874 1765.71 C 3937.594 1764.89 3938.534 1764.48 3939.694 1764.48 C 3940.847 1764.48 3942.534 1765.203 3944.754 1766.65 C 3947.647 1768.383 3950.517 1769.757 3953.364 1770.77 C 3956.21 1771.783 3959.757 1772.29 3964.004 1772.29 C 3969.21 1772.29 3973.26 1771.373 3976.154 1769.54 C 3979.047 1767.707 3980.494 1765.053 3980.494 1761.58 C 3980.494 1759.46 3979.964 1757.75 3978.904 1756.45 C 3977.844 1755.143 3976.01 1753.987 3973.404 1752.98 C 3970.804 1751.967 3966.994 1750.927 3961.974 1749.86 C 3953.487 1748.027 3947.41 1745.567 3943.744 1742.48 C 3940.077 1739.393 3938.244 1735.2 3938.244 1729.9 C 3938.244 1725.747 3939.4 1722.08 3941.714 1718.9 C 3944.034 1715.713 3947.244 1713.203 3951.344 1711.37 C 3955.444 1709.537 3960.097 1708.62 3965.304 1708.62 C 3969.064 1708.62 3972.707 1709.127 3976.234 1710.14 C 3979.754 1711.153 3982.864 1712.577 3985.564 1714.41 C 3988.844 1716.73 3990.484 1719.143 3990.484 1721.65 C 3990.484 1722.903 3990.097 1723.963 3989.324 1724.83 C 3988.55 1725.697 3987.634 1726.13 3986.574 1726.13 C 3985.414 1726.13 3983.677 1725.31 3981.364 1723.67 C 3978.664 1721.937 3976.107 1720.587 3973.694 1719.62 C 3971.287 1718.653 3968.297 1718.17 3964.724 1718.17 C 3960.19 1718.17 3956.55 1719.183 3953.804 1721.21 C 3951.05 1723.237 3949.674 1725.94 3949.674 1729.32 C 3949.674 1731.44 3950.18 1733.15 3951.194 1734.45 C 3952.207 1735.757 3953.897 1736.917 3956.264 1737.93 C 3958.624 1738.943 3962.024 1739.93 3966.464 1740.89 C 3973.024 1742.337 3978.11 1743.93 3981.724 1745.67 C 3985.344 1747.403 3987.927 1749.523 3989.474 1752.03 C 3991.014 1754.543 3991.784 1757.727 3991.784 1761.58 C 3991.784 1767.66 3989.227 1772.557 3984.114 1776.27 C 3979 1779.983 3972.247 1781.84 3963.854 1781.84 ZM 4064.109 1764.48 C 4065.176 1764.48 4066.093 1764.913 4066.859 1765.78 C 4067.633 1766.647 4068.019 1767.757 4068.019 1769.11 C 4068.019 1771.523 4066.333 1773.743 4062.959 1775.77 C 4059.486 1777.79 4055.819 1779.307 4051.959 1780.32 C 4048.099 1781.333 4044.336 1781.84 4040.669 1781.84 C 4029.769 1781.84 4021.159 1778.61 4014.839 1772.15 C 4008.526 1765.683 4005.369 1756.76 4005.369 1745.38 C 4005.369 1738.147 4006.766 1731.757 4009.559 1726.21 C 4012.359 1720.663 4016.293 1716.347 4021.359 1713.26 C 4026.419 1710.167 4032.183 1708.62 4038.649 1708.62 C 4047.809 1708.62 4055.093 1711.613 4060.499 1717.6 C 4065.899 1723.58 4068.599 1731.683 4068.599 1741.91 C 4068.599 1743.837 4068.213 1745.233 4067.439 1746.1 C 4066.666 1746.967 4065.413 1747.4 4063.679 1747.4 L 4017.089 1747.4 C 4017.956 1763.993 4025.816 1772.29 4040.669 1772.29 C 4044.436 1772.29 4047.669 1771.783 4050.369 1770.77 C 4053.069 1769.757 4055.963 1768.383 4059.049 1766.65 C 4061.556 1765.203 4063.243 1764.48 4064.109 1764.48 Z M 4038.789 1717.74 C 4032.616 1717.74 4027.673 1719.67 4023.959 1723.53 C 4020.246 1727.39 4018.053 1732.84 4017.379 1739.88 L 4058.329 1739.88 C 4058.136 1732.74 4056.349 1727.267 4052.969 1723.46 C 4049.596 1719.647 4044.869 1717.74 4038.789 1717.74 Z" transform="matrix(1, 0, 0, 1, 0, 0)" style="fill: rgb(229, 229, 229); line-height: 231.452px; white-space: pre;"/>
    </g>
  </g>
</svg>