<svg viewBox="0 0 990 990" xmlns="http://www.w3.org/2000/svg">
  <path d="M419.03 6.17C437.6 3.51 456.23.84 475.01.55c4.42-.02 8.85.25 13.27-.02a158.06 158.06 0 01-12.49 13.26l-106 106c-5.85 5.81-11.7 11.63-17.43 17.56-2.12 2.35-5.01 3.97-8.26 3.71-64.79-.17-129.59.06-194.38-.12 8.19-9.24 17.74-17.11 27.05-25.15 36.68-30.43 77.55-55.91 121.36-74.72a414 414 0 0141.76-16.1c17.17-5.94 34.88-10.08 52.54-14.25 8.79-1.92 17.74-2.99 26.6-4.55zM501.72.54c6.43.32 12.87-.33 19.29.24 11.11.89 22.26 1.35 33.29 3.02 11.34 1.62 22.71 3.07 33.99 5.1C624.58 16.06 660.27 26.73 694 42c42.17 18.29 81.46 42.93 117.06 71.95 10.04 8.65 20.36 17.07 29.21 26.99-62.42.19-124.84-.07-187.26.12-4.81-.22-10.66 1.2-14.35-2.76-40.88-41.1-82-81.97-122.94-123.02a183.9 183.9 0 01-14-14.74zM441.2 133.21c18-17.82 35.74-35.89 53.8-53.64 18.23 17.91 36.13 36.16 54.3 54.13 2.36 2.36 4.64 4.8 6.96 7.2-29.42.23-58.84.03-88.26.1-11.42-.05-22.84.12-34.26-.1 2.47-2.57 4.92-5.18 7.46-7.69zM120.95 170.94c6.39-7.38 12.75-14.85 20.19-21.21.2 62.42-.07 124.84.14 187.26-.17 4.83 1.04 10.68-2.97 14.35-41.28 41.03-82.33 82.32-123.55 123.42A177.96 177.96 0 01.51 488.25c.35-5.73-.11-11.48.16-17.21.49-10.27 1.04-20.56 2.49-30.75 1.34-9.37 2.21-18.81 3.99-28.12a495.4 495.4 0 0132.61-111.45 564.73 564.73 0 0128.14-55.81 499.66 499.66 0 0153.05-73.97zM848.98 149.75c6.95 6.14 13.08 13.12 19.14 20.13a491.92 491.92 0 0142.51 56.5c15.78 24.18 28.97 49.97 40.5 76.42a578.03 578.03 0 0116.78 46.16c7.52 24.53 12.91 49.66 16.96 74.98 2.43 16.26 3.63 32.67 4.5 49.08.2 5.08-.23 10.16.1 15.24-7.06-5.83-13.21-12.61-19.73-19l-100-100c-5.02-4.98-9.93-10.08-15.08-14.92-1.85-1.83-3.85-3.61-5.07-5.93-.68-1.68-.69-3.54-.77-5.31.23-64.45-.07-128.9.16-193.35zM201.15 201.02c90.62-.04 181.23-.02 271.85-.01 22.33.49 44.66-.17 67-.01h248.93c-.1 195.93-.01 391.86-.05 587.79-103.62-.14-207.25-.02-310.88-.04-92.26-.02-184.52-.03-276.78 0-.03-186.58 0-373.17-.01-559.75-.02-9.33.06-18.65-.06-27.98m266.32 1.84c-20.22 1.87-40.17 6.16-59.6 12.03-17.51 5.45-34.76 12.07-50.73 21.16a298.43 298.43 0 00-58 40.22c-13.23 12.4-25.95 25.46-36.9 39.94-27 35.35-46.09 76.78-54.82 120.43-5.35 25.07-6.52 50.86-5.33 76.41a291.03 291.03 0 0026.69 105.24c4.41 9.09 8.91 18.16 14.12 26.83 7.09 12.25 15.48 23.69 24.2 34.82 11.23 13.98 24.01 26.64 37.49 38.43 10.22 9 21.32 16.95 32.87 24.14 14.1 9.25 29.39 16.47 44.69 23.47a297.76 297.76 0 00138.14 21.28c19.16-1.85 38.22-5.14 56.7-10.59 13.92-4.02 27.65-8.8 40.68-15.16 9.49-4.68 19.02-9.32 28.11-14.74a366.04 366.04 0 0023.48-15.5c15.97-11.78 30.49-25.42 43.97-39.95 17.07-19.34 32.01-40.68 43.41-63.85 15.71-30.09 25.33-63.16 29.67-96.77 1.94-16.49 2.28-33.13 1.72-49.71-1.52-39.57-11.93-78.57-29.02-114.22-21.87-45.15-55.65-84.37-96.76-113.08a294.09 294.09 0 00-122.8-48.75c-12.09-1.59-24.24-3.24-36.46-3.13-11.84-.04-23.73-.29-35.52 1.05z"/>
  <path d="M471.5 336.77c35.08-4.81 71.54 2.79 102.13 20.51 26.9 15.55 49.37 38.87 63.33 66.68a176.07 176.07 0 0113.93 38.87c5.02 22.78 4.71 46.58-.03 69.38a163.07 163.07 0 01-38.95 74.72c-15.17 17.22-34.7 30.15-55.58 39.42-25.03 10.65-52.74 15.29-79.84 12.39-10.96-1.36-21.91-3.22-32.41-6.7-27.85-8.98-53.75-24.98-72.91-47.25A164.53 164.53 0 01336.91 543a165.65 165.65 0 01-6.04-56.98c2.61-38.55 19.79-75.79 46.99-103.16 14.17-13.73 30.54-25.29 48.63-33.26a171.94 171.94 0 0145.01-12.83zM134.2 440.2c2.22-2.22 4.54-4.35 6.83-6.51.2 5.77.23 11.54.17 17.31.02 32-.02 64 .02 96-.01 3.1-.1 6.2-.19 9.31-2.29-2.16-4.61-4.29-6.83-6.51-18.14-18.34-36.54-36.42-54.64-54.79 18.08-18.39 36.5-36.47 54.64-54.81zM849.04 433.73c2.26 2.15 4.54 4.27 6.76 6.48 18.15 18.33 36.55 36.41 54.64 54.8-18.1 18.37-36.49 36.46-54.64 54.79-2.22 2.2-4.5 4.32-6.76 6.48-.34-36.43-.02-72.86-.16-109.28-.03-4.43.04-8.85.16-13.27zM.52 501.73c5.03 4.2 9.69 8.8 14.24 13.52 41.2 41.12 82.26 82.39 123.54 123.42 2.31 2.1 3.07 5.2 2.98 8.23-.21 64.47.06 128.94-.15 193.4-2.7-2.44-5.4-4.9-7.92-7.53A495.8 495.8 0 0116.11 619.9C7.68 586.88 2.03 553.05.68 518.96c-.27-5.74.18-11.49-.16-17.23zM982.24 508.22c2.31-2.26 4.79-4.34 7.22-6.48-.33 6.09.23 12.19-.25 18.28-.84 10.71-1.1 21.48-2.7 32.12-5.92 52.92-20.93 104.74-43.37 153.01-19.34 40.58-43.68 78.88-73.17 112.86-6.65 7.73-13.4 15.42-20.99 22.25-.23-64.45.07-128.91-.16-193.36.12-2.24.06-4.73 1.55-6.58 2.72-3.56 6.26-6.38 9.38-9.57 40.81-40.86 81.68-81.66 122.49-122.53zM149.71 848.81c64.46-.21 128.92.06 193.38-.15 2.26.11 4.75.14 6.59 1.66 3.54 2.76 6.38 6.28 9.59 9.41 40.85 40.82 81.65 81.69 122.52 122.49 2.26 2.32 4.34 4.8 6.48 7.24-5.07-.33-10.16 0-15.23-.15a414.87 414.87 0 01-39.69-3.38c-22.75-2.46-45.14-7.48-67.3-13.08a501.99 501.99 0 01-187.62-97.27c-9.83-8.64-20.13-16.85-28.72-26.77zM433.67 848.92c5.78-.22 11.55-.24 17.33-.18 32-.02 64 .02 96-.02 3.1.01 6.21.1 9.33.2-2.96 3.18-5.91 6.36-9.04 9.37-17.48 17.33-34.74 34.88-52.29 52.14-18.4-18.08-36.45-36.5-54.8-54.62-2.24-2.25-4.37-4.58-6.53-6.89zM638.66 851.69c3.93-4.27 10.2-2.8 15.35-3.01 62.09.18 124.18-.07 186.27.13-5.42 6.39-11.74 11.92-18 17.47a468.7 468.7 0 01-30.27 24.73c-37.47 27.64-78.51 50.57-122.16 66.87a279.97 279.97 0 01-21.45 7.6c-25.92 8.77-52.77 14.47-79.7 19.09-17.51 2.23-35.08 4.21-52.73 4.76-4.75.1-9.51-.19-14.25.12 4.9-5.98 10.52-11.29 16-16.73 40.27-40.39 80.75-80.57 120.94-121.03z"/>
</svg>
